<svg xmlns="http://www.w3.org/2000/svg" xmlns:xlink="http://www.w3.org/1999/xlink" width="28.75" height="23.36" viewBox="0 0 28.75 23.36"><defs><clipPath id="a"><rect width="50" height="50" fill="none"/></clipPath></defs><title>merchant-location-share</title><g clip-path="url(#a)"><path d="M7.64,7.19l4.49-3.59H3.59A3.55,3.55,0,0,0,0,7.09s0,.06,0,.09V19.76a3.55,3.55,0,0,0,3.5,3.59H21.56a3.55,3.55,0,0,0,3.59-3.5s0-.06,0-.09V13.25l-3.59,2.92v3.59h-18V7.19Z" fill="#9b9b9b"/><path d="M19.76,3.59c-6.29,0-12.58,5.61-12.58,12.58,3.14-2.92,6.74-5.61,12.58-5.39v3.59l9-7.19L19.76,0Z" fill="#9b9b9b"/></g></svg>