<svg xmlns="http://www.w3.org/2000/svg" viewBox="2544.997 130 25.179 36"><defs><style>.a{fill:#00aeef;stroke:#fff;stroke-miterlimit:10;}</style></defs><path class="a" d="M21.346,4.075A12.291,12.291,0,0,0,12.694.5,12.167,12.167,0,0,0,4.043,4.075C-.248,8.365-.319,16.3,2.9,21.521l3,4.648,6.149,9.009a.735.735,0,0,0,1.216,0L22.49,21.521C25.85,16.23,25.636,8.437,21.346,4.075ZM12.623,16.8a4.074,4.074,0,0,1-4.076-4.076,4.029,4.029,0,0,1,4.076-4.076A4.074,4.074,0,0,1,16.7,12.727,4.029,4.029,0,0,1,12.623,16.8Z" transform="translate(2544.863 130)"/></svg>