<svg xmlns="http://www.w3.org/2000/svg" width="24" height="22.97" viewBox="0 0 24 22.97"><title>merchant-location-filter</title><path d="M4.67,2.67V.86a.86.86,0,1,0-1.73,0V2.72a3.87,3.87,0,0,0,0,7.51V22.11a.86.86,0,1,0,1.73,0V10.27A3.86,3.86,0,0,0,7.76,6.51h0A3.88,3.88,0,0,0,4.67,2.67Zm-.77,6h0A2.15,2.15,0,1,1,6,6.47,2.14,2.14,0,0,1,3.88,8.64Z" fill="#00aeef"/><path d="M24,6.51a3.88,3.88,0,0,0-3.09-3.83V.86a.86.86,0,1,0-1.73,0V2.73a3.86,3.86,0,0,0,0,7.5V22.11a.86.86,0,1,0,1.73,0V10.27A3.86,3.86,0,0,0,24,6.51ZM20.14,8.64h0A2.15,2.15,0,0,1,18,6.51h0a2.15,2.15,0,1,1,2.17,2.13Z" fill="#00aeef"/><path d="M13,12.75V.86a.86.86,0,0,0-1.73,0V12.7a3.88,3.88,0,0,0,0,7.6v1.82a.86.86,0,0,0,1.73,0V20.24a3.86,3.86,0,0,0,0-7.49ZM12,18.63a2.15,2.15,0,1,1,0-4.3h0a2.15,2.15,0,0,1,0,4.3Z" fill="#00aeef"/></svg>