<svg xmlns="http://www.w3.org/2000/svg" xmlns:xlink="http://www.w3.org/1999/xlink" viewBox="11296.501 -396.543 91.086 91.086">
  <defs>
    <style>
      .cls-1 {
        fill: #03384e;
      }

      .cls-2 {
        clip-path: url(#clip-path);
      }

      .cls-3 {
        fill: #fff;
      }

      .cls-4 {
        fill: #d0d0d0;
      }
    </style>
    <clipPath id="clip-path">
      <ellipse id="Ellipse_587" data-name="Ellipse 587" class="cls-1" cx="45.543" cy="45.543" rx="45.543" ry="45.543" transform="translate(-13061.956 -1573.05)"/>
    </clipPath>
  </defs>
  <g id="Group_2801" data-name="Group 2801" transform="translate(11053 -503)">
    <g id="Mask_Group_184" data-name="Mask Group 184" class="cls-2" transform="translate(13305.457 1679.507)">
      <ellipse id="Ellipse_586" data-name="Ellipse 586" class="cls-3" cx="45.543" cy="45.543" rx="45.543" ry="45.543" transform="translate(-13061.956 -1573.05)"/>
      <g id="group-3" transform="translate(-13050.457 -1546.507)">
        <g id="group">
          <path id="path" class="cls-4" d="M71.562,44.332a3.752,3.752,0,0,0-2.444-4.171,5.44,5.44,0,0,0-1.694-.261H55.562l-1.6,4.432-.554,1.5L50.8,52.967a6.66,6.66,0,0,0-.358,1.5,3.752,3.752,0,0,0,2.444,4.171l1.5-4.171,1.141-3.161L56.9,47.493l1.141-3.161H64.36c1.76,0,2.64,1.4,2.02,3.161l-1.369,3.813-1.141,3.161L62.242,58.9h4.171l1.629-4.432.554-1.5L71.2,45.831A6.268,6.268,0,0,0,71.562,44.332Z" transform="translate(-33.99 -26.898)"/>
          <path id="path-2" data-name="path" class="cls-4" d="M13.491,39.9H1.629L0,44.332H6.811L3.128,54.466,1.5,58.9H5.67L7.3,54.466l3.682-10.134H17.6A3.834,3.834,0,0,0,13.491,39.9Z" transform="translate(0 -26.898)"/>
          <path id="path-3" data-name="path" class="cls-4" d="M178.915,0,178.1,2.248h0c9.092,0,13.784,7.365,10.46,16.456h2.216C194.589,8.375,189.245,0,178.915,0Z" transform="translate(-120.063)"/>
          <path id="path-4" data-name="path" class="cls-4" d="M173.2,15.948c6.615,0,10.037,5.377,7.625,11.992h2.248c2.868-7.853-1.206-14.24-9.059-14.24h0l-.815,2.248Z" transform="translate(-116.76 -9.236)"/>
          <path id="path-5" data-name="path" class="cls-4" d="M169.015,27.4h0l-.815,2.248h0c4.171,0,6.322,3.389,4.79,7.527h2.248C177.194,31.767,174.391,27.4,169.015,27.4Z" transform="translate(-113.389 -18.471)"/>
          <path id="path-6" data-name="path" class="cls-4" d="M132.862,44.332a3.752,3.752,0,0,0-2.444-4.171,5.44,5.44,0,0,0-1.695-.261H116.83L115.2,44.332l-.88,2.379-.847,2.314L112.1,52.967c-.033.065-.033.13-.065.2a10.547,10.547,0,0,0-.293,1.3,3.752,3.752,0,0,0,2.444,4.171,5.44,5.44,0,0,0,1.694.261h11.894l1.629-4.432.815-2.248.065-.228,1.434-3.943h-8.929l-1.532,4.171h4.758l-.815,2.248H118.85a2.049,2.049,0,0,1-2.053-1.3,2.721,2.721,0,0,1,.065-1.89l.815-2.281.554-1.532.293-.782.88-2.379h6.354a2.026,2.026,0,0,1,2.053,1.271h4.79C132.7,45.179,132.8,44.755,132.862,44.332Z" transform="translate(-75.314 -26.898)"/>
        </g>
        <g id="group-2" data-name="group" transform="translate(60.285 28.448)">
          <path id="path-7" data-name="path" class="cls-4" d="M185,87.691l.13-.391h2.835l-.13.391h-1.173l-1.141,3.161h-.489l1.141-3.161Z" transform="translate(-185 -87.3)"/>
          <path id="path-8" data-name="path" class="cls-4" d="M193.423,87.3l.033,3,2.216-3h.652l-1.3,3.552h-.456l1.075-2.965h0l-2.183,2.965h-.391l-.033-2.965h0l-1.075,2.965H191.5l1.3-3.552Z" transform="translate(-189.382 -87.3)"/>
        </g>
      </g>
    </g>
  </g>
</svg>
