<?xml version="1.0" encoding="UTF-8" standalone="no"?>
<svg width="27px" height="37px" viewBox="0 0 27 37" version="1.1" xmlns="http://www.w3.org/2000/svg" xmlns:xlink="http://www.w3.org/1999/xlink" style="background: #052939;">
    <!-- Generator: Sketch 45.1 (43504) - http://www.bohemiancoding.com/sketch -->
    <title>tng4.0_MnC_method_icon_loaction</title>
    <desc>Created with Sketch.</desc>
    <defs></defs>
    <g id="cut-image" stroke="none" stroke-width="1" fill="none" fill-rule="evenodd">
        <g id="tng4.0_MnC_method_icon_loaction">
            <g id="loat-icon">
                <path d="M21.7022459,5.09732652 C19.5026931,2.94439012 16.4769761,1.7333634 13.3834614,1.7333634 C10.2202118,1.7333634 7.26326117,2.94439012 5.06370829,5.09732652 C0.937730617,9.13502323 0.868964323,16.6025509 3.96344758,21.5144075 L6.85163195,25.8870891 L12.7635962,34.3652171 C13.0396299,34.7679517 13.657558,34.7679517 13.9335917,34.3652171 L22.8025067,21.5144075 C26.0345225,16.5348011 25.8282236,9.20183201 21.7022459,5.09732652 M13.3137266,17.0739762 C11.18294,17.0739762 9.3950163,15.3915241 9.3950163,13.2385877 C9.3950163,11.0856514 11.1141737,9.40319931 13.3137266,9.40319931 C15.4454817,9.40319931 17.2334053,11.0856514 17.2334053,13.2385877 C17.2334053,15.3915241 15.514248,17.0739762 13.3137266,17.0739762" id="Fill-1" fill="#00AEEF"></path>
                <rect id="Rectangle-2" fill="#FF0000" opacity="0" x="0" y="0" width="26.8215179" height="36.4006315"></rect>
            </g>
        </g>
    </g>
</svg>