<svg xmlns="http://www.w3.org/2000/svg" xmlns:xlink="http://www.w3.org/1999/xlink" viewBox="-5 89 50 50"><defs><style>.a{clip-path:url(#b);}.b{fill:rgba(255,255,255,0.8);stroke:#d8d8d8;}.c{fill:#00aeef;}.d{stroke:none;}.e{fill:none;}</style><clipPath id="b"><rect x="-5" y="89" width="50" height="50"/></clipPath></defs><g id="a" class="a"><g transform="translate(-320 -502)"><g class="b" transform="translate(315 591)"><rect class="d" width="50" height="50" rx="8"/><rect class="e" x="0.5" y="0.5" width="49" height="49" rx="7.5"/></g><path class="c" d="M11.394,22.788a.649.649,0,0,1-.343-.171L0,.514A.642.642,0,0,1,.086.086.642.642,0,0,1,.514,0l22.1,11.051a.342.342,0,0,1,.171.343c0,.171-.171.257-.343.257l-10.708.086-.086,10.708c.086.171-.086.343-.257.343ZM1.114,1.114" transform="translate(329.906 605.906)"/></g></g></svg>