<svg xmlns="http://www.w3.org/2000/svg" xmlns:xlink="http://www.w3.org/1999/xlink" viewBox="0 -116 90 90"><defs><style>.a{clip-path:url(#b);}.b{fill:#fff;opacity:0.6;}.c{fill:#37c3dd;}</style><clipPath id="b"><rect y="-116" width="90" height="90"/></clipPath></defs><g id="a" class="a"><rect class="c" y="-116" width="90" height="90"/><g transform="translate(-116 -208)"><path class="b" d="M76.334,57.969c-.377-4.276-3.27-7.672-8.3-8.8-3.018-.755-5.659-1.132-12.073-2.515-7.923-1.761-7.043-6.162-5.282-7.923,3.9-3.9,8.8-8.678,8.3-18.236C58.475,9.927,50.049,1.25,39.485,1.5,28.544,1.753,21,10.808,21,21.749c0,8.678,4.653,13.205,8.426,16.978,1.761,1.761,2.641,6.162-5.282,7.923-6.414,1.383-9.055,1.761-12.073,2.515-5.031,1.258-7.923,4.527-8.3,8.8L1.5,78.719A3.838,3.838,0,0,0,5.278,83H74.7a3.838,3.838,0,0,0,3.773-4.276Z" transform="translate(121.126 106.211)"/></g></g></svg>