<?xml version="1.0" encoding="UTF-8" standalone="no"?>
<svg width="85px" height="85px" viewBox="0 0 85 85" version="1.1" xmlns="http://www.w3.org/2000/svg" xmlns:xlink="http://www.w3.org/1999/xlink">
    <!-- Generator: Sketch 45.1 (43504) - http://www.bohemiancoding.com/sketch -->
    <title>tng4.0_MnC_method_icon_bank</title>
    <desc>Created with Sketch.</desc>
    <defs></defs>
    <g id="cut-image" stroke="none" stroke-width="1" fill="none" fill-rule="evenodd">
        <g id="tng4.0_MnC_method_icon_bank">
            <g id="icon-bank">
                <g id="Page-1" transform="translate(5.711028, 11.003989)" stroke="#00AEEF" stroke-width="2.8" stroke-linecap="round" stroke-linejoin="round">
                    <polygon id="Stroke-1" points="47.6862767 8.68390858 22.2974855 27.0540811 73.0750679 27.0540811"></polygon>
                    <path d="M53.2188642,28.8051761 L53.2188642,47.1753486" id="Stroke-3"></path>
                    <path d="M64.3776583,28.8051761 L64.3776583,47.1753486" id="Stroke-4"></path>
                    <path d="M30.0429072,28.8051761 L30.0429072,47.1753486" id="Stroke-5"></path>
                    <path d="M42.0600701,28.8051761 L42.0600701,47.1753486" id="Stroke-6"></path>
                    <g id="Group-24" transform="translate(0.000000, 0.180185)">
                        <path d="M24.9699124,48.0686515 L70.403132,48.0686515" id="Stroke-7"></path>
                        <path d="M22.2979765,54.0772329 L73.0755588,54.0772329" id="Stroke-9"></path>
                        <polyline id="Stroke-12" points="12.7274677 52.7954056 22.2967491 43.8545839 12.7274677 34.9137623"></polyline>
                        <path d="M21.5546265,43.7768076 L0.0249708876,43.7768076" id="Stroke-14"></path>
                        <path d="M17.6314175,30.255059 C9.38042865,30.255059 2.69322433,23.5653998 2.69322433,15.3168658 C2.69322433,7.06587694 9.38042865,0.378672615 17.6314175,0.378672615 C25.0109095,0.378672615 31.1383919,5.72794509 32.3511228,12.7612932" id="Stroke-16"></path>
                        <path d="M18.0257443,8.69078903 L18.0257443,6.69248348" id="Stroke-18"></path>
                        <path d="M18.0257443,23.9429666 L18.0257443,21.6918042" id="Stroke-20"></path>
                        <path d="M12.8678892,18.5679175 C14.5323255,20.0875135 16.5527253,21.1652237 18.7449696,21.6954866 C20.7432752,21.9458885 22.1204858,21.3223386 22.3684328,19.5695252 C22.7415807,17.0704158 18.8677157,15.4452582 16.1182043,14.1957035 C13.867042,13.1965507 12.8678892,11.6941392 13.368693,10.0689816 C15.1190516,6.32031748 21.9928299,10.9453883 21.9928299,10.9453883" id="Stroke-22"></path>
                    </g>
                </g>
                <rect id="Rectangle" fill="#FF0E00" opacity="0" x="5.91748872e-14" y="-6.32827124e-15" width="85" height="85"></rect>
            </g>
        </g>
    </g>
</svg>