<?xml version="1.0" encoding="UTF-8" standalone="no"?>
<svg width="220px" height="220px" viewBox="0 0 220 220" version="1.1" xmlns="http://www.w3.org/2000/svg" xmlns:xlink="http://www.w3.org/1999/xlink">
    <!-- Generator: Sketch 45.1 (43504) - http://www.bohemiancoding.com/sketch -->
    <title>tng4.0_PendingAct_no_pending</title>
    <desc>Created with Sketch.</desc>
    <defs></defs>
    <g id="Cut-image" stroke="none" stroke-width="1" fill="none" fill-rule="evenodd">
        <g id="tng4.0_PendingAct_no_pending">
            <g id="Group-5">
                <g id="Group-4">
                    <g id="EmptyActionItem" transform="translate(19.000000, 21.000000)">
                        <path d="M178.073296,170.247021 C178.073296,171.840851 176.75541,173 175.291093,172.855106 C165.187304,172.130638 159.476467,167.638936 154.497789,163.726808 C149.226247,159.524893 144.247568,155.612765 134.143779,155.612765 C124.039991,155.612765 119.061312,159.524893 113.78977,163.726808 C108.225365,168.073617 102.075232,173 90.0678311,173 C78.0604299,173 71.9102976,167.928723 66.3458922,163.581914 C61.0743502,159.379999 56.0956717,155.467871 46.1383146,155.467871 C44.8204291,155.467871 43.5025436,154.598509 43.3561119,153.294467 C43.0632484,151.700637 44.3811339,150.251701 45.9918829,150.251701 C57.999284,150.251701 64.1494164,155.178084 69.7138218,159.524893 C74.9853638,163.726808 79.9640423,167.638936 90.0678311,167.638936 C100.17162,167.638936 105.150298,163.726808 110.42184,159.524893 C115.986246,155.178084 122.136378,150.251701 134.143779,150.251701 C146.151181,150.251701 152.301313,155.178084 157.865718,159.524893 C162.697965,163.292127 167.237349,166.914468 175.730388,167.638936 C177.048274,167.638936 178.073296,168.798085 178.073296,170.247021 L178.073296,170.247021 Z" id="Shape" fill="#153A49" fill-rule="nonzero"></path>
                        <g id="Group" transform="translate(0.000000, 119.122449)" fill-rule="nonzero" fill="#153A49">
                            <path d="M176.2839,19.1906706 C177.462071,19.3360544 178.787514,19.4814383 180.112957,19.4814383 C181.4384,19.4814383 182.763843,20.3537415 182.911114,21.6621963 C183.205657,23.2614189 181.880214,24.7152575 180.260229,24.7152575 C178.640243,24.7152575 177.020257,24.5698737 175.547543,24.4244898 C174.074829,24.2791059 173.1912,22.9706511 173.338471,21.5168124 L173.338471,21.5168124 C173.485743,20.0629738 174.811186,18.8999028 176.2839,19.1906706 Z" id="Shape"></path>
                            <path d="M166.858529,18.4637512 C166.269443,20.0629738 164.354914,20.6445092 162.8822,19.772206 C160.525857,18.3183673 158.464057,16.5737609 156.549529,15.1199223 C151.247757,10.9037901 146.3878,6.83304179 136.226071,6.68765792 C126.064343,6.54227405 121.057114,10.4676385 115.608071,14.5383868 C110.011757,18.754519 103.679086,23.6975705 91.6028286,23.5521866 C79.5265714,23.4068027 73.3411714,18.3183673 67.8921286,13.9568513 C62.5903571,9.74071914 57.7304,5.66997085 47.5686714,5.52458698 C37.4069429,5.37920311 32.3997143,9.30456754 26.9506714,13.3753158 C21.3543571,17.591448 15.0216857,22.5344995 3.0927,22.3891156 C1.76725714,22.3891156 0.589085714,21.3714286 0.294542857,20.0629738 C1.84852134e-14,18.4637512 1.32544286,17.0099125 2.94542857,17.0099125 C13.1071571,17.1552964 18.1143857,13.229932 23.5634286,9.15918367 C29.1597429,4.94305151 35.4924143,6.15896223e-14 47.5686714,0.145383868 C59.6449286,0.290767736 65.8303286,5.37920311 71.2793714,9.74071914 C76.5811429,13.9568513 81.4411,18.0275996 91.6028286,18.1729835 C101.764557,18.3183673 106.771786,14.3930029 112.220829,10.3222546 C117.817143,6.10612245 124.149814,1.16307094 136.226071,1.30845481 C148.302329,1.45383868 154.487729,6.54227405 159.936771,10.9037901 C161.8513,12.5030126 163.618557,13.9568513 165.680357,15.2653061 C166.858529,15.9922255 167.300343,17.3006803 166.858529,18.4637512 L166.858529,18.4637512 Z" id="Shape"></path>
                            <path d="M2.0618,35.6190476 C2.0618,37.2182702 3.38724286,38.3813411 4.85995714,38.3813411 C15.0216857,37.7998056 20.7652714,33.4382896 25.9197714,29.5129252 C31.3688143,25.4421769 36.3760429,21.5168124 46.5377714,21.6621963 C56.6995,21.8075802 61.5594571,25.8783285 66.8612286,30.0944606 C72.3102714,34.6013605 78.4956714,39.5444121 90.5719286,39.6897959 C92.1919143,39.6897959 93.5173571,38.2359572 93.2228143,36.6367347 C93.0755429,35.3282799 91.7501,34.4559767 90.4246571,34.4559767 C80.4102,34.3105928 75.5502429,30.2398445 70.2484714,26.0237123 C64.7994286,21.5168124 58.6140286,16.5737609 46.5377714,16.4283771 C34.4615143,16.2829932 28.1288429,21.0806608 22.5325286,25.4421769 C17.6725714,29.2221574 12.9598857,32.7113703 4.41814286,33.2929057 C3.0927,33.1475219 2.0618,34.3105928 2.0618,35.6190476 L2.0618,35.6190476 Z" id="Shape"></path>
                        </g>
                        <path d="M64.9726891,107.14966 C94.7911235,119.609678 119.590614,113.892729 123.576246,111.693902 C123.871478,111.547313 124.019094,111.84049 123.871478,111.987079 C90.9531072,154.937495 64.9726891,107.14966 64.9726891,107.14966 Z" id="Shape" fill="#44788D" fill-rule="nonzero"></path>
                        <path d="M102.271825,98.7687075 C102.271825,98.7687075 107.686216,78.940766 123.929388,84.0435451 C123.929388,84.0435451 115.734635,96.2902148 111.929928,95.4154527 C112.076263,95.4154527 104.759518,92.4995789 102.271825,98.7687075 Z" id="Shape" fill="#44788D" fill-rule="nonzero"></path>
                        <path d="M102.271825,97.5714286 C102.271825,97.5714286 104.504564,80.3500449 116.710201,83.6161694 C116.710201,83.6161694 111.649327,95.6414459 108.672342,95.4929857 C108.821192,95.4929857 107.18385,93.5630031 102.271825,97.5714286 Z" id="Shape" fill="#1D546C" fill-rule="nonzero"></path>
                        <path d="M60.1598973,111.938776 C85.9926994,122.749674 118.91107,115.006733 118.763454,115.006733 C119.058686,114.86064 119.206302,115.152826 119.058686,115.29892 C86.1403154,158.104233 60.1598973,111.938776 60.1598973,111.938776 Z" id="Shape" fill="#1D546C" fill-rule="nonzero"></path>
                        <path d="M64.9726891,107.14966 C94.7911235,119.705401 119.590614,112.467386 123.576246,110.251666 C123.871478,110.103952 124.019094,110.399381 123.871478,110.547096 C121.066774,115.717107 98.0386758,149.691465 69.4011694,117.194253" id="Shape" stroke="#1D4352" stroke-width="2" stroke-linecap="round"></path>
                        <path d="M96.2558357,114.333333 L104.56884,89.5879435 C106.173104,85.3164178 110.402527,82.81242 114.777792,83.254302 C117.98632,83.696184 122.944954,84.1380659 125.132586,84.4326539 C125.132586,84.4326539 121.049005,89.1460615 116.236214,94.743233 C114.63195,96.6580549 112.006791,97.5418188 109.673316,96.9526428 L105.881419,96.2161729" id="Shape" stroke="#1D4352" stroke-width="2" stroke-linecap="round"></path>
                        <g id="Group-2" transform="translate(111.116597, 3.170068)" fill-rule="nonzero">
                            <g id="Group" transform="translate(0.000000, 2.394558)" fill="#153A49">
                                <path d="M23.4496947,24.0590047 C25.0518478,25.2184748 24.9061975,25.3634085 23.1583941,24.4938059 L6.40861222,15.9427139 C4.66080888,15.0731113 3.78690722,13.6237737 4.36950833,12.7541711 C4.95210944,11.8845686 6.69991277,12.0295023 8.15641555,13.0440387 L23.4496947,24.0590047 Z" id="Shape"></path>
                                <path d="M32.6256622,30.2911565 C31.0235091,29.1316864 31.1691594,28.9867526 32.9169628,29.8563552 L49.6667447,38.4074472 C51.414548,39.2770498 52.2884497,40.7263874 51.7058486,41.59599 C51.1232475,42.4655926 49.3754441,42.3206588 47.9189413,41.3061224 L32.6256622,30.2911565 Z" id="Shape"></path>
                                <path d="M24.9061975,31.7404941 C26.0713997,30.1462227 26.21705,30.2911565 25.3431483,32.0303616 L16.7497819,48.6977444 C15.8758803,50.4369495 14.4193775,51.3065521 13.5454758,50.726817 C12.6715742,50.147082 12.8172244,48.4078768 13.8367764,46.9585392 L24.9061975,31.7404941 Z" id="Shape"></path>
                                <path d="M31.1691594,22.609667 C30.0039572,24.2039384 29.8583069,24.0590047 30.7322086,22.3197995 L39.325575,5.65241676 C40.1994766,3.9132116 41.6559794,3.04360902 42.5298811,3.62334407 C43.4037827,4.20307913 43.2581325,5.94228428 42.2385805,7.39162191 L31.1691594,22.609667 Z" id="Shape"></path>
                                <path d="M22.575793,28.11715 C24.4692466,27.8272825 24.4692466,28.11715 22.7214433,28.6968851 L4.66080888,34.4942356 C2.91300555,35.0739706 1.16520222,34.6391694 0.873901666,33.624633 C0.582601111,32.6100967 1.89345361,31.4506266 3.78690722,31.160759 L22.575793,28.11715 Z" id="Shape"></path>
                                <path d="M33.4995639,26.0880773 C31.6061103,26.3779449 31.6061103,26.0880773 33.3539136,25.5083423 L51.414548,19.7109918 C53.1623513,19.1312567 54.9101547,19.566058 55.2014552,20.5805943 C55.4927558,21.5951307 54.1819033,22.7546008 52.2884497,23.0444683 L33.4995639,26.0880773 Z" id="Shape"></path>
                                <path d="M28.9844053,32.6100967 C28.6931047,30.7259578 28.9844053,30.7259578 29.5670064,32.4651629 L35.3930175,50.4369495 C35.9756186,52.1761547 35.5386677,53.9153598 34.5191158,54.2052274 C33.4995639,54.4950949 32.3343616,53.190691 32.0430611,51.3065521 L28.9844053,32.6100967 Z" id="Shape"></path>
                                <path d="M26.9453014,21.7400644 C27.2366019,23.6242034 26.9453014,23.6242034 26.3627003,21.8849982 L20.5366891,3.9132116 C19.954088,2.17400644 20.3910389,0.434801289 21.4105908,0.144933763 C22.4301428,-0.144933763 23.595345,1.1594701 23.8866455,3.04360902 L26.9453014,21.7400644 Z" id="Shape"></path>
                                <path d="M24.1779461,26.3779449 C25.4887986,26.6678124 25.4887986,26.8127462 24.1779461,26.8127462 L10.7781205,25.5083423 C9.46726805,25.3634085 8.4477161,24.6387397 8.59336638,23.9140709 C8.73901666,23.1894021 9.90421888,22.7546008 11.2150714,23.1894021 L24.1779461,26.3779449 Z" id="Shape"></path>
                                <path d="M31.8974108,27.9722163 C30.5865583,27.6823487 30.5865583,27.537415 31.8974108,27.537415 L45.2972364,28.8418188 C46.6080888,28.9867526 47.6276408,29.7114214 47.4819905,30.4360902 C47.3363402,31.160759 46.171138,31.5955603 44.8602855,31.160759 L31.8974108,27.9722163 Z" id="Shape"></path>
                                <path d="M27.0909516,31.0158253 C27.3822522,29.7114214 27.5279025,29.7114214 27.5279025,31.0158253 L26.21705,44.3497315 C26.0713997,45.6541353 25.3431483,46.6686717 24.6148969,46.5237379 C23.8866455,46.3788042 23.4496947,45.219334 23.8866455,43.9149302 L27.0909516,31.0158253 Z" id="Shape"></path>
                                <path d="M28.838755,23.3343358 C28.5474544,24.6387397 28.4018041,24.6387397 28.4018041,23.3343358 L29.7126566,10.0004296 C29.8583069,8.69602578 30.5865583,7.68148944 31.3148097,7.8264232 C32.0430611,7.97135696 32.4800119,9.13082707 32.0430611,10.4352309 L28.838755,23.3343358 Z" id="Shape"></path>
                                <path d="M24.7605472,29.2766201 C25.9257494,28.5519513 26.0713997,28.6968851 24.9061975,29.5664876 L14.4193775,38.1175797 C13.3998255,38.9871822 12.088973,39.132116 11.6520222,38.552381 C11.2150714,37.9726459 11.7976725,36.8131758 12.9628747,36.088507 L24.7605472,29.2766201 Z" id="Shape"></path>
                                <path d="M31.3148097,25.073541 C30.1496075,25.7982098 30.0039572,25.653276 31.1691594,24.7836735 L41.6559794,16.2325815 C42.6755314,15.3629789 43.9863839,15.2180451 44.4233347,15.7977802 C44.8602855,16.3775152 44.2776844,17.5369853 43.1124822,18.2616541 L31.3148097,25.073541 Z" id="Shape"></path>
                                <path d="M30.1496075,30.4360902 C29.4213561,29.2766201 29.5670064,29.1316864 30.440908,30.2911565 L39.0342744,40.7263874 C39.9081761,41.7409237 40.0538264,43.0453276 39.4712252,43.4801289 C38.8886241,43.9149302 37.7234219,43.3351951 36.9951705,42.175725 L30.1496075,30.4360902 Z" id="Shape"></path>
                                <path d="M25.9257494,23.9140709 C26.6540008,25.073541 26.5083505,25.2184748 25.6344489,24.0590047 L17.0410825,13.6237737 C16.1671808,12.6092374 16.0215305,11.3048335 16.6041317,10.8700322 C17.1867328,10.4352309 18.351935,11.014966 19.0801864,12.1744361 L25.9257494,23.9140709 Z" id="Shape"></path>
                            </g>
                            <g id="Group" fill="#44788D">
                                <path d="M24.1779461,26.8006279 C25.4887986,27.2427002 25.4887986,27.3900576 24.0322958,27.2427002 L10.6324703,25.3270539 C9.32161777,25.1796965 8.30206583,24.2955521 8.4477161,23.558765 C8.59336638,22.821978 9.7585686,22.5272632 11.0694211,22.821978 L24.1779461,26.8006279 Z" id="Shape"></path>
                                <path d="M31.7517605,28.8636316 C30.440908,28.4215594 30.440908,28.274202 31.8974108,28.4215594 L45.2972364,30.3372057 C46.6080888,30.4845631 47.6276408,31.3687075 47.4819905,32.1054945 C47.3363402,32.8422815 46.171138,33.1369963 44.8602855,32.8422815 L31.7517605,28.8636316 Z" id="Shape"></path>
                                <path d="M26.9453014,31.6634223 C27.3822522,30.3372057 27.5279025,30.3372057 27.3822522,31.8107797 L25.4887986,45.3676609 C25.3431483,46.6938776 24.4692466,47.7253794 23.7409953,47.578022 C23.0127439,47.4306646 22.7214433,46.2518053 23.0127439,44.9255887 L26.9453014,31.6634223 Z" id="Shape"></path>
                                <path d="M28.9844053,24.0008373 C28.5474544,25.3270539 28.4018041,25.3270539 28.5474544,23.8534799 L30.440908,10.2965986 C30.5865583,8.970382 31.46046,7.93888017 32.1887114,8.08623757 C32.9169628,8.23359498 33.2082633,9.41245421 32.9169628,10.7386709 L28.9844053,24.0008373 Z" id="Shape"></path>
                                <path d="M24.6148969,29.747776 C25.7800991,29.1583464 25.9257494,29.3057038 24.7605472,30.0424908 L13.9824267,38.2945055 C12.9628747,39.1786499 11.6520222,39.3260073 11.2150714,38.5892203 C10.7781205,37.9997907 11.3607217,36.8209314 12.6715742,36.2315018 L24.6148969,29.747776 Z" id="Shape"></path>
                                <path d="M31.46046,25.7691261 C30.2952578,26.3585557 30.1496075,26.2111983 31.3148097,25.4744113 L42.0929302,17.2223967 C43.1124822,16.3382522 44.4233347,16.3382522 44.8602855,16.9276818 C45.2972364,17.5171115 44.7146352,18.6959707 43.4037827,19.2854003 L31.46046,25.7691261 Z" id="Shape"></path>
                                <path d="M30.0039572,31.2213501 C29.4213561,30.0424908 29.5670064,29.8951334 30.2952578,31.0739927 L38.4516733,41.9784406 C39.325575,43.0099424 39.4712252,44.3361591 38.7429739,44.7782313 C38.1603727,45.2203035 36.9951705,44.6308739 36.4125694,43.3046572 L30.0039572,31.2213501 Z" id="Shape"></path>
                                <path d="M26.0713997,24.2955521 C26.6540008,25.4744113 26.5083505,25.6217687 25.7800991,24.4429095 L17.6236836,13.5384615 C16.7497819,12.5069597 16.6041317,11.1807431 17.332383,10.7386709 C18.0606344,10.2965986 19.0801864,10.8860283 19.6627875,12.2122449 L26.0713997,24.2955521 Z" id="Shape"></path>
                                <path d="M23.595345,24.4429095 C25.0518478,25.6217687 24.9061975,25.7691261 23.3040444,24.8849817 L6.84556305,15.4541078 C5.24341,14.5699634 4.36950833,12.9490319 4.95210944,12.0648875 C5.53471055,11.1807431 7.28251388,11.3281005 8.73901666,12.5069597 L23.595345,24.4429095 Z" id="Shape"></path>
                                <path d="M32.4800119,31.2213501 C31.0235091,30.0424908 31.1691594,29.8951334 32.7713125,30.7792779 L49.2297938,40.2101518 C50.8319469,41.0942962 51.7058486,42.7152276 51.1232475,43.5993721 C50.5406463,44.4835165 48.792843,44.3361591 47.3363402,43.1572998 L32.4800119,31.2213501 Z" id="Shape"></path>
                                <path d="M24.7605472,32.2528519 C25.9257494,30.7792779 26.0713997,30.9266353 25.197498,32.5475667 L15.8758803,49.1989534 C15.0019786,50.8198849 13.3998255,51.7040293 12.5259239,51.1145997 C11.6520222,50.5251701 11.7976725,48.7568812 12.9628747,47.2833072 L24.7605472,32.2528519 Z" id="Shape"></path>
                                <path d="M31.3148097,23.4114076 C30.1496075,24.8849817 30.0039572,24.7376243 30.8778589,23.1166928 L40.1994766,6.46530612 C41.0733783,4.84437467 42.6755314,3.96023025 43.549433,4.54965986 C44.4233347,5.13908948 44.2776844,6.90737834 43.1124822,8.38095238 L31.3148097,23.4114076 Z" id="Shape"></path>
                                <path d="M22.575793,28.5689168 C24.4692466,28.4215594 24.4692466,28.5689168 22.7214433,29.1583464 L4.36950833,34.1684982 C2.47605472,34.6105704 0.873901666,34.1684982 0.728251388,33.1369963 C0.582601111,32.1054945 1.89345361,30.9266353 3.78690722,30.7792779 L22.575793,28.5689168 Z" id="Shape"></path>
                                <path d="M33.4995639,27.0953428 C31.6061103,27.2427002 31.6061103,27.0953428 33.3539136,26.5059131 L51.5601983,21.4957614 C53.4536519,21.0536892 55.055805,21.4957614 55.2014552,22.5272632 C55.3471055,23.558765 54.036253,24.7376243 52.1427994,24.8849817 L33.4995639,27.0953428 Z" id="Shape"></path>
                                <path d="M28.838755,33.2843537 C28.6931047,31.3687075 28.838755,31.3687075 29.4213561,33.1369963 L34.3734655,51.5566719 C34.8104164,53.4723182 34.3734655,55.0932496 33.3539136,55.240607 C32.3343616,55.3879644 31.1691594,54.0617478 31.0235091,52.1461015 L28.838755,33.2843537 Z" id="Shape"></path>
                                <path d="M27.2366019,22.2325484 C27.3822522,24.1481947 27.2366019,24.1481947 26.6540008,22.3799058 L21.7018914,3.96023025 C21.2649405,2.04458399 21.7018914,0.423652538 22.7214433,0.276295133 C23.7409953,0.128937729 24.9061975,1.45515437 25.0518478,3.37080063 L27.2366019,22.2325484 Z" id="Shape"></path>
                            </g>
                        </g>
                        <g id="Group-2-Copy" transform="translate(71.000000, 0.000000)" fill-rule="nonzero">
                            <g id="Group" transform="translate(0.000000, 1.383697)" fill="#153A49">
                                <path d="M13.6399517,13.9025169 C14.5718738,14.5725178 14.4871536,14.6562679 13.4705113,14.1537673 L3.72768866,9.21251123 C2.7110463,8.71001062 2.20272512,7.87250959 2.5416059,7.37000898 C2.88048669,6.86750837 3.89712905,6.95125847 4.74433102,7.53750919 L13.6399517,13.9025169 Z" id="Shape"></path>
                                <path d="M18.9773241,17.5037713 C18.0454019,16.8337705 18.1301221,16.7500204 19.1467645,17.252521 L28.8895871,22.193777 C29.9062295,22.6962777 30.4145506,23.5337787 30.0756698,24.0362793 C29.7367891,24.5387799 28.7201467,24.4550298 27.8729447,23.8687791 L18.9773241,17.5037713 Z" id="Shape"></path>
                                <path d="M14.4871536,18.3412724 C15.1649152,17.4200212 15.2496354,17.5037713 14.7413142,18.5087726 L9.74282263,28.1400343 C9.23450145,29.1450355 8.38729948,29.6475361 7.8789783,29.3125357 C7.37065712,28.9775353 7.45537731,27.9725341 8.04841869,27.1350331 L14.4871536,18.3412724 Z" id="Shape"></path>
                                <path d="M18.1301221,13.0650159 C17.4523605,13.986267 17.3676403,13.9025169 17.8759615,12.8975157 L22.8744531,3.26625398 C23.3827743,2.26125276 24.2299763,1.75875214 24.7382975,2.09375255 C25.2466186,2.42875296 25.1618984,3.43375418 24.5688571,4.27125521 L18.1301221,13.0650159 Z" id="Shape"></path>
                                <path d="M13.1316305,16.2475198 C14.2329931,16.0800196 14.2329931,16.2475198 13.2163507,16.5825202 L2.7110463,19.9325243 C1.69440394,20.2675247 0.677761574,20.0162744 0.508321181,19.4300237 C0.338880787,18.843773 1.10136256,18.1737721 2.20272512,18.0062719 L13.1316305,16.2475198 Z" id="Shape"></path>
                                <path d="M19.4856453,15.0750184 C18.3842827,15.2425186 18.3842827,15.0750184 19.4009251,14.740018 L29.9062295,11.3900139 C30.9228718,11.0550135 31.9395142,11.3062638 32.1089546,11.8925145 C32.278395,12.4787652 31.5159132,13.148766 30.4145506,13.3162662 L19.4856453,15.0750184 Z" id="Shape"></path>
                                <path d="M16.8593192,18.843773 C16.6898788,17.7550216 16.8593192,17.7550216 17.1981999,18.7600229 L20.5870078,29.1450355 C20.9258886,30.1500367 20.671728,31.155038 20.0786866,31.3225382 C19.4856453,31.4900384 18.8078837,30.7362875 18.6384433,29.6475361 L16.8593192,18.843773 Z" id="Shape"></path>
                                <path d="M15.6732364,12.5625153 C15.8426768,13.6512666 15.6732364,13.6512666 15.3343556,12.6462654 L11.9455477,2.26125276 C11.606667,1.25625153 11.8608275,0.251250306 12.4538689,0.0837501021 C13.0469103,-0.0837501021 13.7246719,0.670000817 13.8941123,1.75875214 L15.6732364,12.5625153 Z" id="Shape"></path>
                                <path d="M14.0635527,15.2425186 C14.8260344,15.4100188 14.8260344,15.4937689 14.0635527,15.4937689 L6.26929456,14.740018 C5.50681279,14.6562679 4.91377141,14.2375174 4.99849161,13.8187668 C5.08321181,13.4000163 5.76097338,13.148766 6.52345515,13.4000163 L14.0635527,15.2425186 Z" id="Shape"></path>
                                <path d="M18.5537231,16.1637697 C17.7912413,15.9962695 17.7912413,15.9125194 18.5537231,15.9125194 L26.3479812,16.6662703 C27.110463,16.7500204 27.7035043,17.1687709 27.6187841,17.5875214 C27.5340639,18.0062719 26.8563024,18.2575223 26.0938206,18.0062719 L18.5537231,16.1637697 Z" id="Shape"></path>
                                <path d="M15.7579566,17.9225218 C15.927397,17.1687709 16.0121172,17.1687709 16.0121172,17.9225218 L15.2496354,25.6275312 C15.1649152,26.3812822 14.7413142,26.9675329 14.3177133,26.8837828 C13.8941123,26.8000327 13.6399517,26.1300318 13.8941123,25.3762809 L15.7579566,17.9225218 Z" id="Shape"></path>
                                <path d="M16.774599,13.4837664 C16.6051586,14.2375174 16.5204384,14.2375174 16.5204384,13.4837664 L17.2829201,5.77875704 C17.3676403,5.02500612 17.7912413,4.43875541 18.2148423,4.52250551 C18.6384433,4.60625561 18.8926039,5.27625643 18.6384433,6.03000735 L16.774599,13.4837664 Z" id="Shape"></path>
                                <path d="M14.4024334,16.9175206 C15.080195,16.4987701 15.1649152,16.5825202 14.4871536,17.0850208 L8.38729948,22.0262768 C7.7942581,22.5287775 7.03177633,22.6125276 6.77761574,22.2775272 C6.52345515,21.9425267 6.86233594,21.2725259 7.54009751,20.8537754 L14.4024334,16.9175206 Z" id="Shape"></path>
                                <path d="M18.2148423,14.4887677 C17.5370807,14.9075182 17.4523605,14.8237681 18.1301221,14.3212675 L24.2299763,9.38001143 C24.8230176,8.87751082 25.5854994,8.79376072 25.83966,9.12876113 C26.0938206,9.46376153 25.7549398,10.1337624 25.0771782,10.5525129 L18.2148423,14.4887677 Z" id="Shape"></path>
                                <path d="M17.5370807,17.5875214 C17.1134797,16.9175206 17.1981999,16.8337705 17.7065211,17.5037713 L22.7050127,23.5337787 C23.2133339,24.1200294 23.2980541,24.8737803 22.9591733,25.1250306 C22.6202925,25.3762809 21.942531,25.0412805 21.51893,24.3712797 L17.5370807,17.5875214 Z" id="Shape"></path>
                                <path d="M15.080195,13.8187668 C15.503796,14.4887677 15.4190758,14.5725178 14.9107546,13.9025169 L9.91226302,7.87250959 C9.40394184,7.28625888 9.31922164,6.53250796 9.65810243,6.28125766 C9.99698322,6.03000735 10.6747448,6.36500776 11.0983458,7.03500857 L15.080195,13.8187668 Z" id="Shape"></path>
                            </g>
                            <g id="Group" fill="#44788D">
                                <path d="M14.0635527,15.4867664 C14.8260344,15.7422182 14.8260344,15.8273688 13.9788325,15.7422182 L6.18457436,14.6352603 C5.42209259,14.5501097 4.82905122,14.0392061 4.91377141,13.613453 C4.99849161,13.1877 5.67625318,13.0173988 6.43873495,13.1877 L14.0635527,15.4867664 Z" id="Shape"></path>
                                <path d="M18.4690029,16.6788748 C17.7065211,16.423423 17.7065211,16.3382724 18.5537231,16.423423 L26.3479812,17.5303809 C27.110463,17.6155315 27.7035043,18.1264351 27.6187841,18.5521882 C27.5340639,18.9779412 26.8563024,19.1482424 26.0938206,18.9779412 L18.4690029,16.6788748 Z" id="Shape"></path>
                                <path d="M15.6732364,18.2967363 C15.927397,17.5303809 16.0121172,17.5303809 15.927397,18.381887 L14.8260344,26.2157427 C14.7413142,26.9820981 14.2329931,27.5781523 13.8093921,27.4930017 C13.3857911,27.4078511 13.2163507,26.7266463 13.3857911,25.9602908 L15.6732364,18.2967363 Z" id="Shape"></path>
                                <path d="M16.8593192,13.8689049 C16.6051586,14.6352603 16.5204384,14.6352603 16.6051586,13.7837543 L17.7065211,5.94989856 C17.7912413,5.18354311 18.2995625,4.58748887 18.7231635,4.67263947 C19.1467645,4.75779008 19.3162049,5.43899492 19.1467645,6.20535037 L16.8593192,13.8689049 Z" id="Shape"></path>
                                <path d="M14.3177133,17.1897785 C14.9954748,16.8491761 15.080195,16.9343267 14.4024334,17.3600797 L8.13313889,22.1285136 C7.54009751,22.6394172 6.77761574,22.7245678 6.52345515,22.2988148 C6.26929456,21.9582124 6.60817535,21.2770075 7.37065712,20.9364051 L14.3177133,17.1897785 Z" id="Shape"></path>
                                <path d="M18.2995625,14.8907121 C17.6218009,15.2313146 17.5370807,15.1461639 18.2148423,14.7204109 L24.4841369,9.95197701 C25.0771782,9.44107338 25.83966,9.44107338 26.0938206,9.7816758 C26.3479812,10.1222782 26.0091004,10.8034831 25.2466186,11.1440855 L18.2995625,14.8907121 Z" id="Shape"></path>
                                <path d="M17.4523605,18.0412845 C17.1134797,17.3600797 17.1981999,17.2749291 17.6218009,17.9561339 L22.3661319,24.2572787 C22.8744531,24.853333 22.9591733,25.6196884 22.5355723,25.8751402 C22.1966916,26.130592 21.51893,25.7899896 21.1800492,25.0236342 L17.4523605,18.0412845 Z" id="Shape"></path>
                                <path d="M15.1649152,14.0392061 C15.503796,14.7204109 15.4190758,14.8055615 14.9954748,14.1243567 L10.2511438,7.82321188 C9.74282263,7.22715764 9.65810243,6.46080219 10.0817034,6.20535037 C10.5053044,5.94989856 11.0983458,6.29050098 11.4372266,7.05685643 L15.1649152,14.0392061 Z" id="Shape"></path>
                                <path d="M13.7246719,14.1243567 C14.5718738,14.8055615 14.4871536,14.8907121 13.5552315,14.3798085 L3.98184925,8.93016975 C3.04992708,8.41926611 2.5416059,7.48260945 2.88048669,6.97170582 C3.21936748,6.46080219 4.23600984,6.54595279 5.08321181,7.22715764 L13.7246719,14.1243567 Z" id="Shape"></path>
                                <path d="M18.8926039,18.0412845 C18.0454019,17.3600797 18.1301221,17.2749291 19.0620443,17.7858327 L28.6354265,23.2354715 C29.5673487,23.7463751 30.0756698,24.6830318 29.7367891,25.1939354 C29.3979083,25.704839 28.3812659,25.6196884 27.5340639,24.9384836 L18.8926039,18.0412845 Z" id="Shape"></path>
                                <path d="M14.4024334,18.6373388 C15.080195,17.7858327 15.1649152,17.8709833 14.656594,18.80764 L9.23450145,28.4296584 C8.72618027,29.3663151 7.7942581,29.8772187 7.28593692,29.5366163 C6.77761574,29.1960138 6.86233594,28.1742066 7.54009751,27.3227005 L14.4024334,18.6373388 Z" id="Shape"></path>
                                <path d="M18.2148423,13.5283024 C17.5370807,14.3798085 17.4523605,14.2946579 17.9606817,13.3580012 L23.3827743,3.73598281 C23.8910955,2.79932615 24.8230176,2.28842252 25.3313388,2.62902494 C25.83966,2.96962737 25.7549398,3.99143463 25.0771782,4.84294069 L18.2148423,13.5283024 Z" id="Shape"></path>
                                <path d="M13.1316305,16.5085736 C14.2329931,16.423423 14.2329931,16.5085736 13.2163507,16.8491761 L2.5416059,19.7442966 C1.44024334,19.9997485 0.508321181,19.7442966 0.423600984,19.1482424 C0.338880787,18.5521882 1.10136256,17.8709833 2.20272512,17.7858327 L13.1316305,16.5085736 Z" id="Shape"></path>
                                <path d="M19.4856453,15.6570676 C18.3842827,15.7422182 18.3842827,15.6570676 19.4009251,15.3164652 L29.9909497,12.4213446 C31.0923122,12.1658928 32.0242344,12.4213446 32.1089546,13.0173988 C32.1936748,13.613453 31.431193,14.2946579 30.3298304,14.3798085 L19.4856453,15.6570676 Z" id="Shape"></path>
                                <path d="M16.774599,19.233393 C16.6898788,18.1264351 16.774599,18.1264351 17.1134797,19.1482424 L19.9939664,29.7920681 C20.248127,30.899026 19.9939664,31.8356826 19.4009251,31.9208332 C18.8078837,32.0059838 18.1301221,31.2396284 18.0454019,30.1326705 L16.774599,19.233393 Z" id="Shape"></path>
                                <path d="M15.8426768,12.8470976 C15.927397,13.9540555 15.8426768,13.9540555 15.503796,12.9322482 L12.6233093,2.28842252 C12.3691487,1.18146465 12.6233093,0.244807991 13.2163507,0.159657385 C13.8093921,0.0745067798 14.4871536,0.840862229 14.5718738,1.9478201 L15.8426768,12.8470976 Z" id="Shape"></path>
                            </g>
                        </g>
                        <g id="Group-2-Copy-3" transform="translate(139.000000, 69.000000)" fill-rule="nonzero">
                            <g id="Group" transform="translate(0.000000, 1.546485)" fill="#153A49">
                                <path d="M15.2932792,15.5381072 C16.3381616,16.2869316 16.2431723,16.3805347 15.1033005,15.8189163 L4.17952971,10.2963361 C3.03965797,9.73471775 2.4697221,8.79868719 2.84967935,8.23706886 C3.22963659,7.67545053 4.36950833,7.76905359 5.31940144,8.42427497 L15.2932792,15.5381072 Z" id="Shape"></path>
                                <path d="M21.2776058,19.5630385 C20.2327234,18.8142141 20.3277127,18.7206111 21.4675844,19.2822294 L32.3913552,24.8048096 C33.531227,25.366428 34.1011628,26.3024585 33.7212056,26.8640769 C33.3412483,27.4256952 32.2013766,27.3320921 31.2514835,26.6768707 L21.2776058,19.5630385 Z" id="Shape"></path>
                                <path d="M16.2431723,20.4990691 C17.0030868,19.4694355 17.0980761,19.5630385 16.5281402,20.6862752 L10.9237708,31.4506266 C10.353835,32.5738632 9.40394184,33.1354816 8.83400597,32.7610693 C8.2640701,32.3866571 8.35905941,31.2634205 9.02398459,30.3273899 L16.2431723,20.4990691 Z" id="Shape"></path>
                                <path d="M20.3277127,14.6020766 C19.5677982,15.6317102 19.4728089,15.5381072 20.0427447,14.4148705 L25.6471141,3.65051916 C26.21705,2.52728249 27.1669431,1.96566416 27.736879,2.34007638 C28.3068148,2.7144886 28.2118255,3.83772527 27.5469003,4.77375582 L20.3277127,14.6020766 Z" id="Shape"></path>
                                <path d="M14.7233433,18.1589927 C15.9582043,17.9717866 15.9582043,18.1589927 14.8183326,18.5334049 L3.03965797,22.2775272 C1.89978623,22.6519394 0.759914492,22.3711302 0.569935869,21.7159088 C0.379957246,21.0606874 1.23486105,20.311863 2.4697221,20.1246569 L14.7233433,18.1589927 Z" id="Shape"></path>
                                <path d="M21.8475416,16.8485499 C20.6126806,17.0357561 20.6126806,16.8485499 21.7525523,16.4741377 L33.531227,12.7300155 C34.6710987,12.3556033 35.8109704,12.6364125 36.0009491,13.2916338 C36.1909277,13.9468552 35.3360239,14.6956797 34.1011628,14.8828858 L21.8475416,16.8485499 Z" id="Shape"></path>
                                <path d="M18.902873,21.0606874 C18.7128944,19.8438477 18.902873,19.8438477 19.2828302,20.9670844 L23.0824027,32.5738632 C23.4623599,33.6970999 23.177392,34.8203366 22.5124668,35.0075427 C21.8475416,35.1947488 21.0876272,34.3523213 20.8976485,33.1354816 L18.902873,21.0606874 Z" id="Shape"></path>
                                <path d="M17.5730226,14.0404583 C17.7630013,15.257298 17.5730226,15.257298 17.1930654,14.1340613 L13.3934929,2.52728249 C13.0135357,1.40404583 13.2985036,0.280809166 13.9634288,0.0936030553 C14.628354,-0.0936030553 15.3882685,0.748824442 15.5782471,1.96566416 L17.5730226,14.0404583 Z" id="Shape"></path>
                                <path d="M15.7682257,17.0357561 C16.6231295,17.2229622 16.6231295,17.3165652 15.7682257,17.3165652 L7.02920905,16.4741377 C6.17430525,16.3805347 5.50938007,15.9125194 5.60436938,15.4445041 C5.69935869,14.9764888 6.45927318,14.6956797 7.31417699,14.9764888 L15.7682257,17.0357561 Z" id="Shape"></path>
                                <path d="M20.8026592,18.0653897 C19.9477554,17.8781836 19.9477554,17.7845805 20.8026592,17.7845805 L29.5416759,18.627008 C30.3965797,18.7206111 31.0615049,19.1886263 30.9665156,19.6566416 C30.8715262,20.1246569 30.1116117,20.405466 29.2567079,20.1246569 L20.8026592,18.0653897 Z" id="Shape"></path>
                                <path d="M17.6680119,20.0310538 C17.8579906,19.1886263 17.9529799,19.1886263 17.9529799,20.0310538 L17.0980761,28.6425349 C17.0030868,29.4849624 16.5281402,30.1401838 16.0531936,30.0465807 C15.5782471,29.9529777 15.2932792,29.2041532 15.5782471,28.3617257 L17.6680119,20.0310538 Z" id="Shape"></path>
                                <path d="M18.8078837,15.0700919 C18.6179051,15.9125194 18.5229157,15.9125194 18.5229157,15.0700919 L19.3778195,6.45861081 C19.4728089,5.61618332 19.9477554,4.96096193 20.422702,5.05456498 C20.8976485,5.14816804 21.1826165,5.89699248 20.8976485,6.73941998 L18.8078837,15.0700919 Z" id="Shape"></path>
                                <path d="M16.148183,18.9078172 C16.9080974,18.4398019 17.0030868,18.5334049 16.2431723,19.0950233 L9.40394184,24.6176035 C8.73901666,25.1792219 7.88411286,25.2728249 7.59914492,24.8984127 C7.31417699,24.5240005 7.69413423,23.775176 8.45404872,23.3071608 L16.148183,18.9078172 Z" id="Shape"></path>
                                <path d="M20.422702,16.1933286 C19.6627875,16.6613438 19.5677982,16.5677408 20.3277127,16.0061224 L27.1669431,10.4835422 C27.8318683,9.92192386 28.6867721,9.8283208 28.97174,10.202733 C29.2567079,10.5771452 28.8767507,11.3259697 28.1168362,11.793985 L20.422702,16.1933286 Z" id="Shape"></path>
                                <path d="M19.6627875,19.6566416 C19.1878409,18.9078172 19.2828302,18.8142141 19.8527661,19.5630385 L25.4571355,26.3024585 C26.0270714,26.9576799 26.1220607,27.8001074 25.7421034,28.0809166 C25.3621462,28.3617257 24.6022317,27.9873135 24.1272851,27.2384891 L19.6627875,19.6566416 Z" id="Shape"></path>
                                <path d="M16.9080974,15.4445041 C17.383044,16.1933286 17.2880547,16.2869316 16.7181188,15.5381072 L11.1137494,8.79868719 C10.5438136,8.14346581 10.4488243,7.30103831 10.8287815,7.02022914 C11.2087388,6.73941998 11.9686533,7.1138322 12.4435998,7.86265664 L16.9080974,15.4445041 Z" id="Shape"></path>
                            </g>
                            <g id="Group" fill="#44788D">
                                <path d="M15.7682257,17.3087389 C16.6231295,17.5942439 16.6231295,17.6894122 15.6732364,17.5942439 L6.93421974,16.3570556 C6.07931594,16.2618873 5.41439076,15.6908774 5.50938007,15.2150358 C5.60436938,14.7391941 6.36428387,14.5488575 7.21918768,14.7391941 L15.7682257,17.3087389 Z" id="Shape"></path>
                                <path d="M20.7076699,18.6410954 C19.8527661,18.3555904 19.8527661,18.2604221 20.8026592,18.3555904 L29.5416759,19.5927786 C30.3965797,19.687947 31.0615049,20.2589569 30.9665156,20.7347985 C30.8715262,21.2106402 30.1116117,21.4009768 29.2567079,21.2106402 L20.7076699,18.6410954 Z" id="Shape"></path>
                                <path d="M17.5730226,20.4492936 C17.8579906,19.5927786 17.9529799,19.5927786 17.8579906,20.5444619 L16.6231295,29.2999477 C16.5281402,30.1564626 15.9582043,30.8226409 15.4832578,30.7274725 C15.0083112,30.6323042 14.8183326,29.8709576 15.0083112,29.0144427 L17.5730226,20.4492936 Z" id="Shape"></path>
                                <path d="M18.902873,15.5005407 C18.6179051,16.3570556 18.5229157,16.3570556 18.6179051,15.4053724 L19.8527661,6.64988662 C19.9477554,5.79337171 20.5176913,5.12719344 20.9926378,5.22236177 C21.4675844,5.31753009 21.657563,6.07887668 21.4675844,6.93539159 L18.902873,15.5005407 Z" id="Shape"></path>
                                <path d="M16.0531936,19.2121054 C16.8131081,18.8314321 16.9080974,18.9266004 16.148183,19.402442 L9.11897391,24.7318681 C8.45404872,25.3028781 7.59914492,25.3980464 7.31417699,24.9222048 C7.02920905,24.5415315 7.4091663,23.7801849 8.2640701,23.3995116 L16.0531936,19.2121054 Z" id="Shape"></path>
                                <path d="M20.5176913,16.6425606 C19.7577768,17.0232339 19.6627875,16.9280656 20.422702,16.452224 L27.451911,11.1227978 C28.1168362,10.5517879 28.97174,10.5517879 29.2567079,10.9324612 C29.5416759,11.3131345 29.1617186,12.0744811 28.3068148,12.4551544 L20.5176913,16.6425606 Z" id="Shape"></path>
                                <path d="M19.5677982,20.1637886 C19.1878409,19.402442 19.2828302,19.3072737 19.7577768,20.0686203 L25.0771782,27.1110762 C25.6471141,27.7772545 25.7421034,28.6337694 25.2671569,28.9192744 C24.8871996,29.2047793 24.1272851,28.8241061 23.7473279,27.9675911 L19.5677982,20.1637886 Z" id="Shape"></path>
                                <path d="M17.0030868,15.6908774 C17.383044,16.452224 17.2880547,16.5473923 16.8131081,15.7860457 L11.4937067,8.74358974 C10.9237708,8.07741148 10.8287815,7.22089656 11.3037281,6.93539159 C11.7786746,6.64988662 12.4435998,7.03055992 12.8235571,7.88707483 L17.0030868,15.6908774 Z" id="Shape"></path>
                                <path d="M15.3882685,15.7860457 C16.3381616,16.5473923 16.2431723,16.6425606 15.1982898,16.0715507 L4.46449764,9.98077795 C3.41961521,9.40976801 2.84967935,8.36291645 3.22963659,7.79190651 C3.60959384,7.22089656 4.74946558,7.31606489 5.69935869,8.07741148 L15.3882685,15.7860457 Z" id="Shape"></path>
                                <path d="M21.1826165,20.1637886 C20.2327234,19.402442 20.3277127,19.3072737 21.3725951,19.8782836 L32.1063873,25.9690563 C33.1512697,26.5400663 33.7212056,27.5869178 33.3412483,28.1579278 C32.9612911,28.7289377 31.8214194,28.6337694 30.8715262,27.8724228 L21.1826165,20.1637886 Z" id="Shape"></path>
                                <path d="M16.148183,20.8299669 C16.9080974,19.8782836 17.0030868,19.9734519 16.4331509,21.0203035 L10.353835,31.7743241 C9.78389909,32.8211756 8.73901666,33.3921856 8.16908079,33.0115123 C7.59914492,32.630839 7.69413423,31.4888191 8.45404872,30.5371359 L16.148183,20.8299669 Z" id="Shape"></path>
                                <path d="M20.422702,15.1198674 C19.6627875,16.0715507 19.5677982,15.9763823 20.137734,14.9295308 L26.21705,4.1755102 C26.7869858,3.12865864 27.8318683,2.5576487 28.4018041,2.938322 C28.97174,3.31899529 28.8767507,4.46101518 28.1168362,5.41269841 L20.422702,15.1198674 Z" id="Shape"></path>
                                <path d="M14.7233433,18.4507588 C15.9582043,18.3555904 15.9582043,18.4507588 14.8183326,18.8314321 L2.84967935,22.0671551 C1.6148183,22.35266 0.569935869,22.0671551 0.474946558,21.4009768 C0.379957246,20.7347985 1.23486105,19.9734519 2.4697221,19.8782836 L14.7233433,18.4507588 Z" id="Shape"></path>
                                <path d="M21.8475416,17.4990755 C20.6126806,17.5942439 20.6126806,17.4990755 21.7525523,17.1184022 L33.6262163,13.8826792 C34.8610773,13.5971743 35.9059598,13.8826792 36.0009491,14.5488575 C36.0959384,15.2150358 35.2410346,15.9763823 34.0061735,16.0715507 L21.8475416,17.4990755 Z" id="Shape"></path>
                                <path d="M18.8078837,21.4961451 C18.7128944,20.2589569 18.8078837,20.2589569 19.1878409,21.4009768 L22.4174775,33.2970173 C22.7024455,34.5342055 22.4174775,35.581057 21.7525523,35.6762254 C21.0876272,35.7713937 20.3277127,34.9148788 20.2327234,33.6776906 L18.8078837,21.4961451 Z" id="Shape"></path>
                                <path d="M17.7630013,14.3585208 C17.8579906,15.5957091 17.7630013,15.5957091 17.383044,14.4536892 L14.1534074,2.5576487 C13.8684395,1.32046049 14.1534074,0.273608931 14.8183326,0.178440607 C15.4832578,0.0832722833 16.2431723,0.939787197 16.3381616,2.17697541 L17.7630013,14.3585208 Z" id="Shape"></path>
                            </g>
                        </g>
                        <g id="Group-2-Copy-2" transform="translate(28.876751, 35.000000)" fill-rule="nonzero">
                            <g id="Group" transform="translate(0.000000, 1.921296)" fill="#153A49">
                                <path d="M18.8188498,19.3039655 C20.1046097,20.2342771 19.9877224,20.350566 18.5850752,19.6528323 L5.14303969,12.7917843 C3.7403925,12.0940507 3.03906891,10.9311612 3.50661797,10.2334275 C3.97416703,9.53569378 5.37681422,9.65198273 6.54568688,10.4660054 L18.8188498,19.3039655 Z" id="Shape"></path>
                                <path d="M26.1827475,24.3043903 C24.8969876,23.3740787 25.0138749,23.2577897 26.416522,23.9555234 L39.8585576,30.8165714 C41.2612048,31.5143051 41.9625284,32.6771946 41.4949793,33.3749282 C41.0274303,34.0726619 39.6247831,33.956373 38.4559104,33.1423503 L26.1827475,24.3043903 Z" id="Shape"></path>
                                <path d="M19.9877224,25.4672797 C20.9228206,24.1881013 21.0397078,24.3043903 20.3383842,25.6998576 L13.4420356,39.0730867 C12.740712,40.4685541 11.5718393,41.1662878 10.8705157,40.701132 C10.1691921,40.2359762 10.2860794,38.8405088 11.1042902,37.6776193 L19.9877224,25.4672797 Z" id="Shape"></path>
                                <path d="M25.0138749,18.141076 C24.0787767,19.4202544 23.9618895,19.3039655 24.6632131,17.9084981 L31.5595617,4.53526899 C32.2608853,3.13980161 33.429758,2.44206792 34.1310816,2.90722371 C34.8324052,3.37237951 34.7155179,4.76784689 33.8973071,5.93073638 L25.0138749,18.141076 Z" id="Shape"></path>
                                <path d="M18.1175262,22.560056 C19.6370606,22.3274781 19.6370606,22.560056 18.2344134,23.0252118 L3.7403925,27.6767698 C2.33774531,28.1419256 0.935098126,27.7930587 0.701323594,26.9790361 C0.467549063,26.1650134 1.51953445,25.2347018 3.03906891,25.0021239 L18.1175262,22.560056 Z" id="Shape"></path>
                                <path d="M26.8840711,20.9320107 C25.3645367,21.1645886 25.3645367,20.9320107 26.7671838,20.466855 L41.2612048,15.815297 C42.663852,15.3501412 44.0664992,15.6990081 44.3002737,16.5130307 C44.5340482,17.3270533 43.4820628,18.2573649 41.9625284,18.4899428 L26.8840711,20.9320107 Z" id="Shape"></path>
                                <path d="M23.2605659,26.1650134 C23.0267913,24.6532571 23.2605659,24.6532571 23.7281149,26.0487245 L28.4036056,40.4685541 C28.8711546,41.8640215 28.5204928,43.2594889 27.702282,43.4920668 C26.8840711,43.7246447 25.948973,42.6780441 25.7151985,41.1662878 L23.2605659,26.1650134 Z" id="Shape"></path>
                                <path d="M21.6241442,17.4433423 C21.8579187,18.9550986 21.6241442,18.9550986 21.1565951,17.5596312 L16.4811045,3.13980161 C16.0135554,1.74433423 16.3642172,0.348866846 17.1824281,0.116288949 C18.0006389,-0.116288949 18.935737,0.930311589 19.1695116,2.44206792 L21.6241442,17.4433423 Z" id="Shape"></path>
                                <path d="M19.4032861,21.1645886 C20.4552715,21.3971665 20.4552715,21.5134555 19.4032861,21.5134555 L8.64965766,20.466855 C7.59767227,20.350566 6.77946141,19.7691213 6.89634868,19.1876765 C7.01323594,18.6062318 7.94833407,18.2573649 9.00031946,18.6062318 L19.4032861,21.1645886 Z" id="Shape"></path>
                                <path d="M25.5983112,22.4437671 C24.5463258,22.2111892 24.5463258,22.0949002 25.5983112,22.0949002 L36.3519396,23.1415008 C37.403925,23.2577897 38.2221359,23.8392345 38.1052486,24.4206792 C37.9883614,25.0021239 37.0532632,25.3509908 36.0012778,25.0021239 L25.5983112,22.4437671 Z" id="Shape"></path>
                                <path d="M21.7410314,24.885835 C21.974806,23.8392345 22.0916932,23.8392345 22.0916932,24.885835 L21.0397078,35.5844183 C20.9228206,36.6310188 20.3383842,37.4450414 19.7539479,37.3287525 C19.1695116,37.2124635 18.8188498,36.282152 19.1695116,35.2355514 L21.7410314,24.885835 Z" id="Shape"></path>
                                <path d="M23.1436786,18.7225207 C22.9099041,19.7691213 22.7930168,19.7691213 22.7930168,18.7225207 L23.8450022,8.02393745 C23.9618895,6.97733692 24.5463258,6.16331428 25.1307621,6.27960322 C25.7151985,6.39589217 26.0658603,7.32620376 25.7151985,8.3728043 L23.1436786,18.7225207 Z" id="Shape"></path>
                                <path d="M19.8708352,23.4903676 C20.8059333,22.9089229 20.9228206,23.0252118 19.9877224,23.7229455 L11.5718393,30.5839935 C10.7536284,31.2817272 9.70164305,31.3980161 9.35098126,30.9328603 C9.00031946,30.4677045 9.46786852,29.5373929 10.4029666,28.9559482 L19.8708352,23.4903676 Z" id="Shape"></path>
                                <path d="M25.1307621,20.1179881 C24.195664,20.6994328 24.0787767,20.5831439 25.0138749,19.8854102 L33.429758,13.0243622 C34.2479688,12.3266286 35.2999542,12.2103396 35.650616,12.6754954 C36.0012778,13.1406512 35.5337288,14.0709628 34.5986306,14.6524075 L25.1307621,20.1179881 Z" id="Shape"></path>
                                <path d="M24.195664,24.4206792 C23.6112277,23.4903676 23.7281149,23.3740787 24.4294385,24.3043903 L31.3257872,32.6771946 C32.0271108,33.4912172 32.1439981,34.5378177 31.676449,34.8866846 C31.2088999,35.2355514 30.2738018,34.7703956 29.6893655,33.840084 L24.195664,24.4206792 Z" id="Shape"></path>
                                <path d="M20.8059333,19.1876765 C21.3903696,20.1179881 21.2734824,20.2342771 20.5721588,19.3039655 L13.6758101,10.9311612 C12.9744865,10.1171385 12.8575992,9.07053799 13.3251483,8.72167114 C13.7926974,8.3728043 14.7277955,8.83796009 15.3122318,9.76827168 L20.8059333,19.1876765 Z" id="Shape"></path>
                            </g>
                            <g id="Group" fill="#44788D">
                                <path d="M19.4032861,21.5037323 C20.4552715,21.8584331 20.4552715,21.9766667 19.2863988,21.8584331 L8.5327704,20.3213965 C7.480785,20.203163 6.66257414,19.4937615 6.77946141,18.9025936 C6.89634868,18.3114257 7.8314468,18.0749585 8.88343219,18.3114257 L19.4032861,21.5037323 Z" id="Shape"></path>
                                <path d="M25.4814239,23.1590024 C24.4294385,22.8043017 24.4294385,22.6860681 25.5983112,22.8043017 L36.3519396,24.3413382 C37.403925,24.4595718 38.2221359,25.1689733 38.1052486,25.7601412 C37.9883614,26.3513091 37.0532632,26.5877763 36.0012778,26.3513091 L25.4814239,23.1590024 Z" id="Shape"></path>
                                <path d="M21.6241442,25.4054405 C21.974806,24.3413382 22.0916932,24.3413382 21.974806,25.523674 L20.4552715,36.4011634 C20.3383842,37.4652656 19.6370606,38.2929007 19.0526243,38.1746671 C18.468188,38.0564335 18.2344134,37.1105649 18.468188,36.0464627 L21.6241442,25.4054405 Z" id="Shape"></path>
                                <path d="M23.2605659,19.2572943 C22.9099041,20.3213965 22.7930168,20.3213965 22.9099041,19.1390607 L24.4294385,8.26157139 C24.5463258,7.19746917 25.2476494,6.36983411 25.8320857,6.48806769 C26.416522,6.60630127 26.6502966,7.55216991 26.416522,8.61627213 L23.2605659,19.2572943 Z" id="Shape"></path>
                                <path d="M19.7539479,23.8684039 C20.689046,23.3954696 20.8059333,23.5137032 19.8708352,24.1048711 L11.2211775,30.7259516 C10.4029666,31.435353 9.35098126,31.5535866 9.00031946,30.9624187 C8.64965766,30.4894844 9.11720672,29.5436158 10.1691921,29.0706814 L19.7539479,23.8684039 Z" id="Shape"></path>
                                <path d="M25.2476494,20.6760973 C24.3125513,21.1490316 24.195664,21.030798 25.1307621,20.4396301 L33.7804198,13.8185496 C34.5986306,13.1091482 35.650616,13.1091482 36.0012778,13.5820825 C36.3519396,14.0550168 35.8843906,15.0008854 34.8324052,15.4738198 L25.2476494,20.6760973 Z" id="Shape"></path>
                                <path d="M24.0787767,25.0507397 C23.6112277,24.1048711 23.7281149,23.9866375 24.3125513,24.9325061 L30.8582381,33.6817911 C31.5595617,34.5094261 31.676449,35.5735283 31.0920127,35.9282291 C30.6244636,36.2829298 29.6893655,35.8099955 29.2218164,34.7458933 L24.0787767,25.0507397 Z" id="Shape"></path>
                                <path d="M20.9228206,19.4937615 C21.3903696,20.4396301 21.2734824,20.5578637 20.689046,19.6119951 L14.1433591,10.8627101 C13.4420356,10.0350751 13.3251483,8.97097287 13.9095846,8.61627213 C14.4940209,8.26157139 15.3122318,8.73450571 15.7797809,9.79860793 L20.9228206,19.4937615 Z" id="Shape"></path>
                                <path d="M18.935737,19.6119951 C20.1046097,20.5578637 19.9877224,20.6760973 18.7019625,19.9666958 L5.49370149,12.3997467 C4.20794157,11.6903452 3.50661797,10.3897758 3.97416703,9.68037435 C4.4417161,8.97097287 5.84436328,9.08920645 7.01323594,10.0350751 L18.935737,19.6119951 Z" id="Shape"></path>
                                <path d="M26.0658603,25.0507397 C24.8969876,24.1048711 25.0138749,23.9866375 26.2996348,24.696039 L39.5078958,32.2629881 C40.7936557,32.9723896 41.4949793,34.272959 41.0274303,34.9823604 C40.5598812,35.6917619 39.157234,35.5735283 37.9883614,34.6276597 L26.0658603,25.0507397 Z" id="Shape"></path>
                                <path d="M19.8708352,25.8783748 C20.8059333,24.696039 20.9228206,24.8142726 20.221497,26.1148419 L12.740712,39.4752365 C12.0393884,40.7758058 10.7536284,41.4852073 10.0523049,41.012273 C9.35098126,40.5393387 9.46786852,39.1205357 10.4029666,37.9381999 L19.8708352,25.8783748 Z" id="Shape"></path>
                                <path d="M25.1307621,18.78436 C24.195664,19.9666958 24.0787767,19.8484622 24.7801003,18.5478928 L32.2608853,5.18749832 C32.9622089,3.88692894 34.2479688,3.17752746 34.9492924,3.65046178 C35.650616,4.1233961 35.5337288,5.54219905 34.5986306,6.72453485 L25.1307621,18.78436 Z" id="Shape"></path>
                                <path d="M18.1175262,22.9225353 C19.6370606,22.8043017 19.6370606,22.9225353 18.2344134,23.3954696 L3.50661797,27.4154113 C1.98708352,27.7701121 0.701323594,27.4154113 0.584436328,26.5877763 C0.467549063,25.7601412 1.51953445,24.8142726 3.03906891,24.696039 L18.1175262,22.9225353 Z" id="Shape"></path>
                                <path d="M26.8840711,21.7401995 C25.3645367,21.8584331 25.3645367,21.7401995 26.7671838,21.2672652 L41.3780921,17.2473235 C42.8976265,16.8926227 44.1833864,17.2473235 44.3002737,18.0749585 C44.417161,18.9025936 43.3651756,19.8484622 41.8456411,19.9666958 L26.8840711,21.7401995 Z" id="Shape"></path>
                                <path d="M23.1436786,26.7060098 C23.0267913,25.1689733 23.1436786,25.1689733 23.6112277,26.5877763 L27.5853947,41.3669737 C27.9360565,42.9040103 27.5853947,44.2045797 26.7671838,44.3228132 C25.948973,44.4410468 25.0138749,43.3769446 24.8969876,41.8399081 L23.1436786,26.7060098 Z" id="Shape"></path>
                                <path d="M21.8579187,17.8384914 C21.974806,19.3755279 21.8579187,19.3755279 21.3903696,17.9567249 L17.4162026,3.17752746 C17.0655408,1.64049092 17.4162026,0.339921542 18.2344134,0.221687962 C19.0526243,0.103454382 19.9877224,1.1675566 20.1046097,2.70459314 L21.8579187,17.8384914 Z" id="Shape"></path>
                            </g>
                        </g>
                    </g>
                    <rect id="Rectangle" fill="#D0021B" opacity="0" x="0" y="0" width="220" height="220"></rect>
                </g>
            </g>
        </g>
    </g>
</svg>