<svg xmlns="http://www.w3.org/2000/svg" xmlns:xlink="http://www.w3.org/1999/xlink" viewBox="162 60 70 56"><defs><style>.a{clip-path:url(#b);}.b,.c{fill:none;stroke:#00adf2;stroke-linecap:round;stroke-miterlimit:10;}.b{stroke-width:1.75px;}.c{stroke-width:4px;}.d{fill:#fff;opacity:0;}</style><clipPath id="b"><rect x="162" y="60" width="70" height="56"/></clipPath></defs><g id="a" class="a"><g transform="translate(162 60)"><g transform="translate(4.002 9.5)"><g transform="translate(27.559 15.615)"><line class="b" y1="2.354" transform="translate(5.401)"/><line class="b" y1="2.493" transform="translate(5.401 16.619)"/><path class="b" d="M20.8,24.73a15.169,15.169,0,0,0,6.37,3.462c2.216.277,3.739-.415,4.016-2.354.415-2.77-3.878-4.57-6.924-5.817-2.493-1.108-3.6-2.77-3.047-4.57,1.939-4.155,9.417.969,9.417.969" transform="translate(-20.8 -11.574)"/></g><path class="b" d="M8.6,28.835V34.79a5.852,5.852,0,0,0,5.817,5.817h33.1a5.852,5.852,0,0,0,5.817-5.817V12.217A5.852,5.852,0,0,0,47.515,6.4H25.773" transform="translate(2.064 1.182)"/><line class="c" y1="22.375" transform="translate(9.986 -0.5)"/><line class="c" y1="22.375" transform="translate(21.173 10.688) rotate(90)"/></g><rect class="d" width="70" height="56"/></g></g></svg>