<?xml version="1.0" encoding="UTF-8" standalone="no"?>
<svg width="45px" height="45px" viewBox="0 0 45 45" version="1.1" xmlns="http://www.w3.org/2000/svg" xmlns:xlink="http://www.w3.org/1999/xlink">
    <!-- Generator: Sketch 45.1 (43504) - http://www.bohemiancoding.com/sketch -->
    <title>tng4.0_common_titlebar_add_remark</title>
    <desc>Created with Sketch.</desc>
    <defs></defs>
    <g id="cut-image" stroke="none" stroke-width="1" fill="none" fill-rule="evenodd">
        <g id="tng4.0_common_titlebar_add_remark">
            <g id="Group-7">
                <path d="M20.9694339,29.4218084 L20.9694339,18.4720152 C20.9694339,17.1018071 22.0803024,15.9904821 23.450967,15.9904821 L23.450967,15.9904821 C24.8211751,15.9904821 25.9320435,17.1018071 25.9320435,18.4720152 L25.9320435,30.5778786 C25.9320435,32.7133212 24.2011342,34.4442304 22.0656917,34.4442304 L22.0656917,34.4442304 C19.9307058,34.4442304 18.1993399,32.7133212 18.1993399,30.5778786 L18.1993399,16.2000541 C18.1993399,13.3313379 20.5247213,11.0064131 23.3929809,11.0064131 L23.3929809,11.0064131 C26.261697,11.0064131 28.5866219,13.3313379 28.5866219,16.2000541 L28.5866219,27.2909317" id="Page-1" stroke="#FFFFFF" stroke-width="1.3" stroke-linecap="round" stroke-linejoin="round" transform="translate(23.392981, 22.725322) rotate(27.000000) translate(-23.392981, -22.725322) "></path>
                <g id="Group" transform="translate(7.957764, 9.957764)" stroke="#FFFFFF" stroke-width="1.8" stroke-linecap="round">
                    <path d="M4.37765072,0.393775495 L4.37765072,8.36924396" id="Stroke-5"></path>
                    <path d="M8.53758256,4.38162584 L0.217718868,4.38162584" id="Stroke-7"></path>
                </g>
                <rect id="Rectangle-2" fill="#FF001F" opacity="0" x="0" y="0" width="45" height="45"></rect>
            </g>
        </g>
    </g>
</svg>