<?xml version="1.0" encoding="UTF-8" standalone="no"?>
<svg width="85px" height="85px" viewBox="0 0 85 85" version="1.1" xmlns="http://www.w3.org/2000/svg" xmlns:xlink="http://www.w3.org/1999/xlink">
    <!-- Generator: Sketch 45.1 (43504) - http://www.bohemiancoding.com/sketch -->
    <title>tng4.0_MnC_method_icon_pickup</title>
    <desc>Created with Sketch.</desc>
    <defs></defs>
    <g id="cut-image" stroke="none" stroke-width="1" fill="none" fill-rule="evenodd">
        <g id="tng4.0_MnC_method_icon_pickup">
            <g id="icon-bank">
                <g id="icon" transform="translate(5.312500, 20.221049)" stroke="#00AEEF" stroke-width="2.6" stroke-linecap="round" stroke-linejoin="round">
                    <polyline id="Stroke-1" points="49.1923845 12.6896695 69.2089727 12.6896695 69.2089727 41.2078173 20.8123447 41.2078173 20.8123447 26.5729088"></polyline>
                    <path d="M5.83126083,23.983499 L32.6490967,27.7961825 C33.0973813,27.8595763 33.5592503,27.8686325 34.0030068,27.7825981 C35.9568939,27.3999713 37.4262713,25.7449407 37.4262713,23.7638849 C37.4262713,22.1745121 36.4663083,20.7300393 34.9607058,20.0530843 L24.8358125,16.0275788 C23.0019208,15.3008143 23.5475602,12.6903488 25.53088,12.6903488 L49.1926109,12.6903488 L49.1926109,10.60741 C49.1926109,7.92223037 47.2047629,5.61288528 44.4516613,5.0921506 L22.6238221,0.720243382 C20.7288007,0.3625213 18.7590652,0.729299638 17.1425236,1.74133616 L5.83126083,8.80974338 L5.83126083,23.983499 Z" id="Stroke-3"></path>
                    <path d="M1.15104167,9.10757494 L1.15104167,24.2149941" id="Stroke-5"></path>
                    <path d="M69.2096519,32.4139671 C64.353235,32.4139671 60.4182921,36.34891 60.4182921,41.2075909 L69.2096519,41.2075909 L69.2096519,32.4139671 Z" id="Stroke-7"></path>
                    <path d="M60.4176129,12.6896695 C60.4176129,17.5483505 64.3525558,21.4832934 69.2089727,21.4832934 L69.2089727,12.6896695 L60.4176129,12.6896695 Z" id="Stroke-9"></path>
                    <path d="M29.6039308,41.2071381 C29.6039308,36.3484571 25.6667239,32.4135142 20.8125711,32.4135142 L20.8125711,41.2071381 L29.6039308,41.2071381 Z" id="Stroke-11"></path>
                    <path d="M45.15625,19.6962678 L45.15625,17.5227666" id="Stroke-13"></path>
                    <path d="M45.15625,36.2698941 L45.15625,33.8247052" id="Stroke-15"></path>
                    <path d="M40.0729619,30.4286095 C41.8819489,32.079112 44.0780908,33.249633 46.4576219,33.8292333 C48.6288591,34.0986569 50.1231412,33.4194378 50.3970929,31.5176242 C50.8023603,28.8007476 46.5934657,27.0347778 43.6049015,25.6763396 C41.1574485,24.5895889 40.0729619,22.959463 40.6163372,21.1934932 C42.5181508,17.1181784 49.9895614,22.1444 49.9895614,22.1444" id="Stroke-17"></path>
                </g>
                <rect id="Rectangle" fill="#FF0E00" opacity="0" x="5.68434189e-14" y="0" width="85" height="85"></rect>
            </g>
        </g>
    </g>
</svg>