<?xml version="1.0" standalone="no"?><!DOCTYPE svg PUBLIC "-//W3C//DTD SVG 1.1//EN" "http://www.w3.org/Graphics/SVG/1.1/DTD/svg11.dtd"><svg t="1490670369680" class="icon" style="" viewBox="0 0 1024 1024" version="1.1" xmlns="http://www.w3.org/2000/svg" p-id="2382" xmlns:xlink="http://www.w3.org/1999/xlink" width="200" height="200"><defs><style type="text/css"></style></defs><path d="M512 16c-273.933 0-496 222.067-496 496s222.067 496 496 496 496-222.067 496-496-222.067-496-496-496zM783.264 394.179l-323.324 323.322c-7.566 7.566-19.834 7.566-27.4 0l-191.803-191.803c-7.566-7.564-7.566-19.832 0-27.398l60.281-60.279c7.566-7.568 19.834-7.566 27.4 0l117.823 117.819 249.345-249.343c7.566-7.566 19.832-7.566 27.4 0l60.28 60.281c7.564 7.566 7.566 19.834-0.002 27.4z" p-id="2383" fill="#ffffff"></path></svg>