<?xml version="1.0" encoding="UTF-8" standalone="no"?>
<svg width="28px" height="20px" viewBox="0 0 28 20" version="1.1" xmlns="http://www.w3.org/2000/svg" xmlns:xlink="http://www.w3.org/1999/xlink">
    <!-- Generator: Sketch 45.1 (43504) - http://www.bohemiancoding.com/sketch -->
    <title>tng4.0_CreditCard_icon_statement_tick</title>
    <desc>Created with Sketch.</desc>
    <defs></defs>
    <g id="Cut-Image" stroke="none" stroke-width="1" fill="none" fill-rule="evenodd">
        <g id="tng4.0_CreditCard_icon_statement_tick">
            <g id="Page-1">
                <g transform="translate(5.755767, 3.237793)">
                    <path d="M16.653262,0.0379911487 C16.5010757,0.0566130947 16.3675114,0.113763205 16.2718331,0.228705561 L5.44156618,11.9746586 L1.09430498,7.26459048 C0.883684353,7.01672596 0.521519609,6.99746187 0.292919168,7.18817629 C0.0643187275,7.3788907 0.0257905633,7.76031952 0.216504976,7.98891996 C0.235769058,8.00818405 0.235769058,8.02744813 0.25503314,8.02744813 L5.02225132,13.175453 C5.23158768,13.4040534 5.59375242,13.4239597 5.822995,13.2139812 C5.84161695,13.1947171 5.84161695,13.1947171 5.86023889,13.175453 L17.111105,0.97229913 C17.3204413,0.743698689 17.3204413,0.38089181 17.0918409,0.171555451 C16.9775407,0.0758771768 16.8253544,0.0187270666 16.653262,0.0379911487" id="Fill-1" fill="#00C10F"></path>
                    <path d="M16.653262,0.0379911487 C16.5010757,0.0566130947 16.3675114,0.113763205 16.2718331,0.228705561 L5.44156618,11.9746586 L1.09430498,7.26459048 C0.883684353,7.01672596 0.521519609,6.99746187 0.292919168,7.18817629 C0.0643187275,7.3788907 0.0257905633,7.76031952 0.216504976,7.98891996 C0.235769058,8.00818405 0.235769058,8.02744813 0.25503314,8.02744813 L5.02225132,13.175453 C5.23158768,13.4040534 5.59375242,13.4239597 5.822995,13.2139812 C5.84161695,13.1947171 5.84161695,13.1947171 5.86023889,13.175453 L17.111105,0.97229913 C17.3204413,0.743698689 17.3204413,0.38089181 17.0918409,0.171555451 C16.9775407,0.0758771768 16.8253544,0.0187270666 16.653262,0.0379911487 Z" id="Stroke-3" stroke="#00C10F"></path>
                </g>
            </g>
        </g>
    </g>
</svg>