<?xml version="1.0" encoding="UTF-8" standalone="no"?>
<svg width="20px" height="20px" viewBox="0 0 20 20" version="1.1" xmlns="http://www.w3.org/2000/svg" xmlns:xlink="http://www.w3.org/1999/xlink">
    <!-- Generator: Sketch 45.1 (43504) - http://www.bohemiancoding.com/sketch -->
    <title>Fill 1 Copy 3</title>
    <desc>Created with Sketch.</desc>
    <defs></defs>
    <g id="Page-1" stroke="none" stroke-width="1" fill="none" fill-rule="evenodd">
        <g id="Membership-Comparison" transform="translate(-305.000000, -577.000000)" fill="#E1B34A">
            <path d="M315,597 C309.477206,597 305,592.522941 305,587 C305,581.477206 309.477206,577 315,577 C320.522941,577 325,581.477206 325,587 C324.987059,592.517941 320.516618,596.987941 314.998529,597 L315,597 Z M313.314706,591.186721 C313.556912,591.188632 313.789412,591.090838 313.957353,590.916132 L319.879559,584.59275 C320.212941,584.237309 320.195147,583.678926 319.839706,583.345544 C319.484412,583.012162 318.926029,583.029809 318.592647,583.38525 L313.325,589.008779 L311.413235,586.930838 C311.083529,586.571868 310.525147,586.548191 310.166176,586.877897 C309.807206,587.207603 309.783529,587.765985 310.113235,588.125103 L312.669118,590.901574 C312.835294,591.082309 313.069265,591.185544 313.314706,591.186721 Z" id="Fill-1-Copy-3"></path>
        </g>
    </g>
</svg>