<?xml version="1.0" encoding="UTF-8" standalone="no"?>
<svg width="111px" height="82px" viewBox="0 0 111 82" version="1.1" xmlns="http://www.w3.org/2000/svg" xmlns:xlink="http://www.w3.org/1999/xlink">
    <!-- Generator: Sketch 45.1 (43504) - http://www.bohemiancoding.com/sketch -->
    <title>tng4.0_CreditCard_icon_take_photo_tick</title>
    <desc>Created with Sketch.</desc>
    <defs></defs>
    <g id="Cut-Image" stroke="none" stroke-width="1" fill="none" fill-rule="evenodd">
        <g id="tng4.0_CreditCard_icon_take_photo_tick">
            <g id="Group">
                <g id="Page-1" transform="translate(17.902261, 16.531250)">
                    <path d="M71.4181915,0.162926587 C70.7655346,0.24278756 70.1927386,0.487878133 69.7824185,0.980813106 L23.336378,51.3538104 L4.69297145,31.1544919 C3.7897163,30.0915148 2.23655806,30.0089 1.25619577,30.8267865 C0.27583348,31.644673 0.11060388,33.280446 0.928490399,34.2608083 C1.0111052,34.3434231 1.0111052,34.4260379 1.09372,34.4260379 L21.5381291,56.5034663 C22.4358766,57.4838286 23.9890349,57.5691972 24.972151,56.6686959 C25.052012,56.5860811 25.052012,56.5860811 25.1318729,56.5034663 L73.3816699,4.16974438 C74.2794174,3.18938209 74.2794174,1.63347003 73.2990551,0.735722533 C72.808874,0.32540236 72.156217,0.080311787 71.4181915,0.162926587" id="Fill-1" fill="#FFFFFF"></path>
                    <path d="M71.4181915,0.162926587 C70.7655346,0.24278756 70.1927386,0.487878133 69.7824185,0.980813106 L23.336378,51.3538104 L4.69297145,31.1544919 C3.7897163,30.0915148 2.23655806,30.0089 1.25619577,30.8267865 C0.27583348,31.644673 0.11060388,33.280446 0.928490399,34.2608083 C1.0111052,34.3434231 1.0111052,34.4260379 1.09372,34.4260379 L21.5381291,56.5034663 C22.4358766,57.4838286 23.9890349,57.5691972 24.972151,56.6686959 C25.052012,56.5860811 25.052012,56.5860811 25.1318729,56.5034663 L73.3816699,4.16974438 C74.2794174,3.18938209 74.2794174,1.63347003 73.2990551,0.735722533 C72.808874,0.32540236 72.156217,0.080311787 71.4181915,0.162926587 Z" id="Stroke-3" stroke="#FFFFFF" stroke-width="2"></path>
                </g>
                <rect id="Rectangle-4" fill="#FF0000" opacity="0" x="0" y="0" width="110.674458" height="81.4564012"></rect>
            </g>
        </g>
    </g>
</svg>