<?xml version="1.0" encoding="UTF-8" standalone="no"?>
<svg width="111px" height="82px" viewBox="0 0 111 82" version="1.1" xmlns="http://www.w3.org/2000/svg" xmlns:xlink="http://www.w3.org/1999/xlink">
    <!-- Generator: Sketch 45.1 (43504) - http://www.bohemiancoding.com/sketch -->
    <title>tng4.0_Banking_icon_take_photo</title>
    <desc>Created with Sketch.</desc>
    <defs></defs>
    <g id="cut-image" stroke="none" stroke-width="1" fill="none" fill-rule="evenodd">
        <g id="tng4.0_Banking_icon_take_photo">
            <g id="Page-1">
                <g id="Group-2" transform="translate(11.783371, 4.585602)">
                    <path d="M79.0391909,68.1342324 L7.74216878,68.1342324 C3.67149421,68.1342324 0.371598258,64.8760018 0.371598258,60.8543463 L0.371598258,19.1513729 C0.371598258,15.1297175 3.67149421,11.8714869 7.74216878,11.8714869 L79.0391909,11.8714869 C83.1098654,11.8714869 86.4121701,15.1297175 86.4121701,19.1513729 L86.4121701,60.8543463 C86.4121701,64.8760018 83.1098654,68.1342324 79.0391909,68.1342324 Z" id="Stroke-1" stroke="#00AEEF" stroke-width="3"></path>
                    <path d="M60.7548768,11.8717247 L26.0264828,11.8717247 L26.0264828,4.9771185 C26.0264828,2.42523424 28.1220372,0.356138892 30.7065542,0.356138892 L56.0748054,0.356138892 C58.6593225,0.356138892 60.7548768,2.42523424 60.7548768,4.9771185 L60.7548768,11.8717247 Z" id="Stroke-3" stroke="#00AEEF" stroke-width="3"></path>
                    <path d="M60.7548768,40.0028596 C60.7548768,49.4707545 52.9820562,57.1478117 43.3906798,57.1478117 C33.8017121,57.1478117 26.0264828,49.4707545 26.0264828,40.0028596 C26.0264828,30.5349647 33.8017121,22.8579075 43.3906798,22.8579075 C52.9820562,22.8579075 60.7548768,30.5349647 60.7548768,40.0028596 Z" id="Stroke-5" stroke="#00AEEF" stroke-width="3"></path>
                    <path d="M76.9796208,23.7006405 C76.9796208,25.7464605 75.3001864,27.4046899 73.228205,27.4046899 C71.154372,27.4046899 69.4749377,25.7464605 69.4749377,23.7006405 C69.4749377,21.6548206 71.154372,19.9965912 73.228205,19.9965912 C75.3001864,19.9965912 76.9796208,21.6548206 76.9796208,23.7006405 Z" id="Stroke-7" fill="#00AEEF"></path>
                </g>
                <rect id="Rectangle-4" fill="#FF0000" opacity="0" x="0.273227569" y="0.273227569" width="110.674458" height="81.4564012"></rect>
            </g>
        </g>
    </g>
</svg>