<?xml version="1.0" encoding="UTF-8" standalone="no"?>
<svg width="45px" height="45px" viewBox="0 0 45 45" version="1.1" xmlns="http://www.w3.org/2000/svg" xmlns:xlink="http://www.w3.org/1999/xlink">
    <!-- Generator: Sketch 45.1 (43504) - http://www.bohemiancoding.com/sketch -->
    <title>tng4.0_TopUp_icon_topup</title>
    <desc>Created with Sketch.</desc>
    <defs></defs>
    <g id="Cut-Image" stroke="none" stroke-width="1" fill="none" fill-rule="evenodd">
        <g id="tng4.0_TopUp_icon_topup" stroke="#FFFFFF">
            <g id="Group-1371">
                <g id="Page-1" transform="translate(4.000000, 10.000000)">
                    <path d="M28.6073192,4.22185263 L18.3823962,4.22185263 C18.3278192,4.22185263 18.2732423,4.22185263 18.2186654,4.27616842 L17.56755,4.97974737 C17.4583962,5.08837895 17.56755,5.30437895 17.7300115,5.30437895 L28.5527423,5.30437895 C29.7496269,5.30437895 30.6748962,6.22395789 30.6748962,7.41511579 L30.6748962,20.5683789 C30.6748962,21.7582737 29.7496269,22.6791158 28.5527423,22.6791158 L8.97358846,22.6791158 C7.77797308,22.6791158 6.85270385,21.7582737 6.85270385,20.5683789 L6.85270385,17.2664842 C6.85270385,17.1591158 6.74355,17.0504842 6.63439615,17.0504842 L5.92870385,17.0504842 C5.81955,17.0504842 5.71039615,17.1591158 5.71039615,17.2664842 L5.71039615,20.5683789 C5.71039615,22.3544842 7.17889615,23.8159579 8.97358846,23.8159579 L28.6618962,23.8159579 C30.4565885,23.8159579 31.9250885,22.3544842 31.9250885,20.5683789 L31.9250885,7.46943158 C31.8705115,5.68332632 30.4020115,4.22185263 28.6073192,4.22185263" id="Fill-1" stroke-width="0.2" fill="#FFFFFF"></path>
                    <path d="M6.25438846,12.4490526 L6.25438846,0.000631578947" id="Stroke-3" stroke-width="2" stroke-linecap="round"></path>
                    <path d="M0,6.22446316 L12.5082692,6.22446316" id="Stroke-5" stroke-width="2" stroke-linecap="round"></path>
                    <path d="M19,10.2841263 L19,9.03865263" id="Stroke-7" stroke-width="1.5" stroke-linecap="round"></path>
                    <path d="M19,19.7023579 L19,18.2952" id="Stroke-9" stroke-width="1.5" stroke-linecap="round"></path>
                    <path d="M15.7724769,16.4000842 C16.6977462,17.2666105 18.1662462,18.1318737 19.3618615,18.2948211 C20.6120538,18.4577684 21.4827462,18.0245053 21.5919,16.9962947 C21.8089385,15.4792421 19.4164385,14.4522947 17.7309,13.6931368 C16.3169769,13.0994526 15.6633231,12.1786105 15.9895154,11.1504 C17.0772462,8.8224 21.3202846,11.6367158 21.3202846,11.6367158" id="Stroke-11" stroke-width="1.5" stroke-linecap="round"></path>
                </g>
            </g>
        </g>
    </g>
</svg>