<?xml version="1.0" encoding="UTF-8" standalone="no"?>
<svg width="60px" height="60px" viewBox="0 0 60 60" version="1.1" xmlns="http://www.w3.org/2000/svg" xmlns:xlink="http://www.w3.org/1999/xlink">
    <!-- Generator: Sketch 45.1 (43504) - http://www.bohemiancoding.com/sketch -->
    <title>tng4.0_TopUp_icon_cc</title>
    <desc>Created with Sketch.</desc>
    <defs></defs>
    <g id="Cut-Image" stroke="none" stroke-width="1" fill="none" fill-rule="evenodd">
        <g id="tng4.0_TopUp_icon_cc">
            <g id="Group">
                <rect id="Rectangle" x="0" y="0" width="60" height="60"></rect>
                <g id="CreditCard" transform="translate(2.000000, 11.000000)" fill-rule="nonzero">
                    <path d="M52.2,38.2 L3.5,38.2 C1.9,38.2 0.7,36.9 0.7,35.4 L0.7,3.1 C0.7,1.5 2,0.3 3.5,0.3 L52.2,0.3 C53.8,0.3 55,1.6 55,3.1 L55,35.3 C55.1,36.9 53.8,38.2 52.2,38.2 Z" id="Shape" fill="#527EC0"></path>
                    <rect id="Rectangle-path" fill="#445260" x="0.7" y="7.2" width="54.4" height="6.7"></rect>
                    <path d="M19.8,31.5 L8.9,31.5 C8.1,31.5 7.5,30.9 7.5,30.1 L7.5,23.4 C7.5,22.6 8.1,22 8.9,22 L18.5,22 L21.2,24.7 L21.2,30.1 C21.1,30.9 20.5,31.5 19.8,31.5 Z" id="Shape" fill="#F9D452"></path>
                    <rect id="Rectangle-path" fill="#ABC9EA" x="27.9" y="19.3" width="21.8" height="2.7"></rect>
                    <rect id="Rectangle-path" fill="#ABC9EA" x="27.9" y="23.8" width="11.9" height="2.5"></rect>
                    <polygon id="Shape" fill="#EFB02D" points="11.7 23.3 11.7 24.8 7.5 24.8 7.5 26 11.7 26 11.7 27.5 7.5 27.5 7.5 28.7 11.7 28.7 11.7 30 13 30 13 28.7 13 27.5 13 26 13 24.8 13 23.3"></polygon>
                    <polygon id="Shape" fill="#EFB02D" points="21.1 26 21.1 24.8 16.9 24.8 16.9 23.3 15.6 23.3 15.6 24.8 15.6 26 15.6 27.5 15.6 28.7 15.6 30 16.9 30 16.9 28.7 21.1 28.7 21.1 27.5 16.9 27.5 16.9 26"></polygon>
                </g>
            </g>
        </g>
    </g>
</svg>