<?xml version="1.0" encoding="UTF-8" standalone="no"?>
<svg width="20px" height="20px" viewBox="0 0 20 20" version="1.1" xmlns="http://www.w3.org/2000/svg" xmlns:xlink="http://www.w3.org/1999/xlink">
    <!-- Generator: Sketch 45.1 (43504) - http://www.bohemiancoding.com/sketch -->
    <title>Fill 1 Copy 2</title>
    <desc>Created with Sketch.</desc>
    <defs></defs>
    <g id="Page-1" stroke="none" stroke-width="1" fill="none" fill-rule="evenodd">
        <g id="Membership-Comparison" transform="translate(-178.000000, -577.000000)" fill="#E1E1E1">
            <path d="M197.996432,587.247162 C197.998715,587.331174 197.999909,587.415458 198,587.5 C198,592.74682 193.74682,597 188.5,597 C188.413749,597 188.327766,596.998851 188.242066,596.996566 C188.161123,596.998674 188.07994,596.999822 187.998529,597 L188,597 C182.477206,597 178,592.522941 178,587 C178,581.477206 182.477206,577 188,577 C193.522941,577 198,581.477206 198,587 C197.999806,587.082626 197.998613,587.165017 197.996432,587.247162 Z M186.354307,590.999973 C186.590889,591.001866 186.817989,590.905041 186.982031,590.732067 L192.766712,584.471376 C193.092352,584.119459 193.074971,583.566612 192.727784,583.236535 C192.380741,582.906458 191.835325,582.92393 191.509684,583.275847 L186.364362,588.843624 L184.496992,586.786284 C184.174943,586.430872 183.629527,586.40743 183.278893,586.733868 C182.928258,587.060305 182.905131,587.613151 183.227181,587.968708 L185.723711,590.717653 C185.886028,590.896596 186.114566,590.998808 186.354307,590.999973 Z" id="Fill-1-Copy-2"></path>
        </g>
    </g>
</svg>