<?xml version="1.0" encoding="UTF-8" standalone="no"?>
<svg width="28px" height="20px" viewBox="0 0 28 20" version="1.1" xmlns="http://www.w3.org/2000/svg" xmlns:xlink="http://www.w3.org/1999/xlink">
    <!-- Generator: Sketch 45.1 (43504) - http://www.bohemiancoding.com/sketch -->
    <title>tng4.0_CreditCard_icon_statement_take_photo</title>
    <desc>Created with Sketch.</desc>
    <defs></defs>
    <g id="Cut-Image" stroke="none" stroke-width="1" fill="none" fill-rule="evenodd">
        <g id="tng4.0_CreditCard_icon_statement_take_photo">
            <g id="Page-1">
                <g id="Group-2" transform="translate(2.957431, 1.089946)">
                    <path d="M19.8375265,16.1947481 L1.94315601,16.1947481 C0.921484177,16.1947481 0.093265002,15.420303 0.093265002,14.4644003 L0.093265002,4.55206801 C0.093265002,3.59616531 0.921484177,2.82172019 1.94315601,2.82172019 L19.8375265,2.82172019 C20.8591983,2.82172019 21.688022,3.59616531 21.688022,4.55206801 L21.688022,14.4644003 C21.688022,15.420303 20.8591983,16.1947481 19.8375265,16.1947481 Z" id="Stroke-1" stroke="#00AEEF" stroke-width="1.3"></path>
                    <path d="M15.2484668,2.82177672 L6.53221568,2.82177672 L6.53221568,1.18300563 C6.53221568,0.576451163 7.05816508,0.0846502474 7.70683601,0.0846502474 L14.0738465,0.0846502474 C14.7225174,0.0846502474 15.2484668,0.576451163 15.2484668,1.18300563 L15.2484668,2.82177672 Z" id="Stroke-3" stroke="#00AEEF" stroke-width="1.3"></path>
                    <path d="M15.2484668,9.50823413 C15.2484668,11.7586473 13.2976177,13.5833983 10.8903413,13.5833983 C8.48366933,13.5833983 6.53221568,11.7586473 6.53221568,9.50823413 C6.53221568,7.25782098 8.48366933,5.43306999 10.8903413,5.43306999 C13.2976177,5.43306999 15.2484668,7.25782098 15.2484668,9.50823413 Z" id="Stroke-5" stroke="#00AEEF" stroke-width="1.3"></path>
                    <path d="M19.3206086,5.63337825 C19.3206086,6.11964687 18.8990984,6.51378953 18.3790654,6.51378953 C17.8585677,6.51378953 17.4370575,6.11964687 17.4370575,5.63337825 C17.4370575,5.14710963 17.8585677,4.75296697 18.3790654,4.75296697 C18.8990984,4.75296697 19.3206086,5.14710963 19.3206086,5.63337825 Z" id="Stroke-7" fill="#00AEEF"></path>
                </g>
                <rect id="Rectangle-4" fill="#FF0000" opacity="0" x="0.0685755898" y="0.0649431495" width="27.7774541" height="19.3612792"></rect>
            </g>
        </g>
    </g>
</svg>