<?xml version="1.0" encoding="UTF-8" standalone="no"?>
<svg width="69px" height="40px" viewBox="0 0 69 40" version="1.1" xmlns="http://www.w3.org/2000/svg" xmlns:xlink="http://www.w3.org/1999/xlink">
    <!-- Generator: Sketch 45.1 (43504) - http://www.bohemiancoding.com/sketch -->
    <title>SVIP</title>
    <desc>Created with Sketch.</desc>
    <defs>
        <linearGradient x1="-19.6424632%" y1="66.8280872%" x2="557.563419%" y2="-73.6077482%" id="linearGradient-1">
            <stop stop-color="#7F5923" offset="0%"></stop>
            <stop stop-color="#FFD168" offset="54.84%"></stop>
            <stop stop-color="#3F2D16" offset="100%"></stop>
        </linearGradient>
        <linearGradient x1="-73.9412679%" y1="89.5680982%" x2="301.656818%" y2="-52.7631902%" id="linearGradient-2">
            <stop stop-color="#7F5923" offset="0%"></stop>
            <stop stop-color="#FFD168" offset="54.84%"></stop>
            <stop stop-color="#3F2D16" offset="100%"></stop>
        </linearGradient>
        <linearGradient x1="-301.676368%" y1="123.368519%" x2="385.413348%" y2="-19.841358%" id="linearGradient-3">
            <stop stop-color="#7F5923" offset="0%"></stop>
            <stop stop-color="#FFD168" offset="54.84%"></stop>
            <stop stop-color="#3F2D16" offset="100%"></stop>
        </linearGradient>
        <linearGradient x1="-249.164993%" y1="143.524815%" x2="176.886567%" y2="0.314938272%" id="linearGradient-4">
            <stop stop-color="#7F5923" offset="0%"></stop>
            <stop stop-color="#FFD168" offset="54.84%"></stop>
            <stop stop-color="#3F2D16" offset="100%"></stop>
        </linearGradient>
        <linearGradient x1="-34.4343651%" y1="-131.722887%" x2="177.944107%" y2="396.112165%" id="linearGradient-5">
            <stop stop-color="#7F5923" offset="0%"></stop>
            <stop stop-color="#FFD168" offset="54.84%"></stop>
            <stop stop-color="#3F2D16" offset="100%"></stop>
        </linearGradient>
        <linearGradient x1="-27.50214%" y1="-114.010722%" x2="184.87621%" y2="413.82433%" id="linearGradient-6">
            <stop stop-color="#7F5923" offset="0%"></stop>
            <stop stop-color="#FFD168" offset="54.84%"></stop>
            <stop stop-color="#3F2D16" offset="100%"></stop>
        </linearGradient>
        <linearGradient x1="-381.961627%" y1="-120.198224%" x2="1707.8494%" y2="701.848118%" id="linearGradient-7">
            <stop stop-color="#7F5923" offset="0%"></stop>
            <stop stop-color="#FFD168" offset="54.84%"></stop>
            <stop stop-color="#3F2D16" offset="100%"></stop>
        </linearGradient>
        <linearGradient x1="-552.422645%" y1="-185.517242%" x2="1556.21848%" y2="636.988985%" id="linearGradient-8">
            <stop stop-color="#7F5923" offset="0%"></stop>
            <stop stop-color="#FFD168" offset="54.84%"></stop>
            <stop stop-color="#3F2D16" offset="100%"></stop>
        </linearGradient>
        <linearGradient x1="-735.876581%" y1="-254.644872%" x2="1377.92958%" y2="565.867949%" id="linearGradient-9">
            <stop stop-color="#7F5923" offset="0%"></stop>
            <stop stop-color="#FFD168" offset="54.84%"></stop>
            <stop stop-color="#3F2D16" offset="100%"></stop>
        </linearGradient>
        <linearGradient x1="-930.753807%" y1="-329.334059%" x2="1189.65712%" y2="490.390214%" id="linearGradient-10">
            <stop stop-color="#7F5923" offset="0%"></stop>
            <stop stop-color="#FFD168" offset="54.84%"></stop>
            <stop stop-color="#3F2D16" offset="100%"></stop>
        </linearGradient>
        <linearGradient x1="-1114.71663%" y1="-404.482065%" x2="975.094394%" y2="413.226045%" id="linearGradient-11">
            <stop stop-color="#7F5923" offset="0%"></stop>
            <stop stop-color="#FFD168" offset="54.84%"></stop>
            <stop stop-color="#3F2D16" offset="100%"></stop>
        </linearGradient>
        <linearGradient x1="-11.3476457%" y1="-5.26120219%" x2="183.159081%" y2="169.602186%" id="linearGradient-12">
            <stop stop-color="#7F5923" offset="0%"></stop>
            <stop stop-color="#FFD168" offset="54.84%"></stop>
            <stop stop-color="#3F2D16" offset="100%"></stop>
        </linearGradient>
        <linearGradient x1="0.0869918699%" y1="49.9669528%" x2="99.9963415%" y2="49.9669528%" id="linearGradient-13">
            <stop stop-color="#7F5923" offset="0%"></stop>
            <stop stop-color="#FFD168" offset="54.84%"></stop>
            <stop stop-color="#3F2D16" offset="100%"></stop>
        </linearGradient>
        <linearGradient x1="-0.312738854%" y1="49.8771812%" x2="99.7127389%" y2="49.8771812%" id="linearGradient-14">
            <stop stop-color="#7F5923" offset="0%"></stop>
            <stop stop-color="#FFD168" offset="54.84%"></stop>
            <stop stop-color="#3F2D16" offset="100%"></stop>
        </linearGradient>
        <linearGradient x1="-0.192993631%" y1="49.8771812%" x2="99.8178344%" y2="49.8771812%" id="linearGradient-15">
            <stop stop-color="#7F5923" offset="0%"></stop>
            <stop stop-color="#FFD168" offset="54.84%"></stop>
            <stop stop-color="#3F2D16" offset="100%"></stop>
        </linearGradient>
        <linearGradient x1="0.00406504065%" y1="49.9669528%" x2="99.9130081%" y2="49.9669528%" id="linearGradient-16">
            <stop stop-color="#7F5923" offset="0%"></stop>
            <stop stop-color="#FFD168" offset="54.84%"></stop>
            <stop stop-color="#3F2D16" offset="100%"></stop>
        </linearGradient>
        <linearGradient x1="0.193630573%" y1="49.8771812%" x2="100.219108%" y2="49.8771812%" id="linearGradient-17">
            <stop stop-color="#7F5923" offset="0%"></stop>
            <stop stop-color="#FFD168" offset="54.84%"></stop>
            <stop stop-color="#3F2D16" offset="100%"></stop>
        </linearGradient>
        <linearGradient x1="0.311392405%" y1="49.8771812%" x2="99.6898734%" y2="49.8771812%" id="linearGradient-18">
            <stop stop-color="#7F5923" offset="0%"></stop>
            <stop stop-color="#FFD168" offset="54.84%"></stop>
            <stop stop-color="#3F2D16" offset="100%"></stop>
        </linearGradient>
    </defs>
    <g id="Page-1" stroke="none" stroke-width="1" fill="none" fill-rule="evenodd">
        <g id="Membership-Comparison" transform="translate(-280.000000, -80.000000)">
            <g id="SVIP" transform="translate(275.000000, 75.000000)">
                <g id="Group" transform="translate(6.000000, 24.000000)" fill-rule="nonzero">
                    <path d="M0.173703704,20.675 L0.173703704,13.775 L3.57333333,13.775 C3.62296296,15.025 3.94555556,15.975 4.56592593,16.55 C5.1862963,17.15 5.88111111,17.45 6.67518519,17.45 C7.29555556,17.45 7.81666667,17.225 8.23851852,16.8 C8.66037037,16.375 8.8837037,15.85 8.8837037,15.275 C8.8837037,14.65 8.68518519,14.125 8.26333333,13.7 C7.84148148,13.275 7.09703704,12.8 6.00518519,12.25 C3.67259259,11.125 2.10925926,10.125 1.26555556,9.275 C0.446666667,8.4 0.0248148148,7.25 0.0248148148,5.775 C0.0248148148,4 0.570740741,2.65 1.66259259,1.675 C2.75444444,0.7 3.99518519,0.225 5.40962963,0.225 C6.99777778,0.225 8.23851852,0.85 9.10703704,2.1 L9.10703704,0.425 L12.5066667,0.425 L12.5066667,6.575 L9.10703704,6.575 C9.00777778,5.625 8.68518519,4.9 8.13925926,4.375 C7.59333333,3.85 6.97296296,3.6 6.25333333,3.6 C5.70740741,3.6 5.21111111,3.75 4.83888889,4.05 C4.44185185,4.35 4.26814815,4.75 4.26814815,5.225 C4.26814815,5.65 4.41703704,6.025 4.73962963,6.4 C5.06222222,6.775 5.98037037,7.3 7.51888889,7.975 C9.00777778,8.65 10.1492593,9.25 10.9433333,9.775 C11.7374074,10.3 12.3577778,11 12.8292593,11.875 C13.3007407,12.725 13.5240741,13.725 13.5240741,14.85 C13.5240741,16.85 12.9533333,18.35 11.787037,19.35 C10.6207407,20.35 9.25592593,20.875 7.69259259,20.875 C5.93074074,20.875 4.56592593,20.225 3.62296296,18.9 L3.62296296,20.625 L0.173703704,20.625 L0.173703704,20.675 Z" id="Shape" fill="url(#linearGradient-1)"></path>
                    <polygon id="Shape" fill="url(#linearGradient-2)" points="22.8048148 20.8 16.8244444 3.85 14.4174074 3.85 14.4174074 0.425 24.6659259 0.425 24.6659259 3.85 22.0851852 3.85 25.46 13.975 28.8348148 3.85 26.2788889 3.85 26.2788889 0.425 35.1625926 0.425 35.1625926 3.85 32.7307407 3.85 26.9737037 20.8"></polygon>
                    <polygon id="Shape" fill="url(#linearGradient-3)" points="35.7581481 20.675 35.7581481 17.25 38.8103704 17.25 38.8103704 3.85 35.7581481 3.85 35.7581481 0.425 47.0985185 0.425 47.0985185 3.85 44.0214815 3.85 44.0214815 17.25 47.0985185 17.25 47.0985185 20.675"></polygon>
                    <path d="M59.1833333,17.25 L59.1833333,20.675 L48.6122222,20.675 L48.6122222,17.25 L51.1681481,17.25 L51.1681481,3.85 L48.6122222,3.85 L48.6122222,0.425 L59.1833333,0.425 C61.64,0.425 63.5507407,1 64.8907407,2.175 C66.2307407,3.35 66.9007407,4.9 66.9007407,6.875 C66.9007407,8 66.6525926,9.025 66.1811111,9.925 C65.7096296,10.85 65.1140741,11.55 64.3696296,12.025 C63.6251852,12.525 62.7814815,12.85 61.8385185,13.025 C60.8955556,13.2 59.7044444,13.3 58.29,13.3 L56.3792593,13.3 L56.3792593,17.25 L59.1833333,17.25 Z M56.3792593,9.95 L57.1485185,9.95 C58.9351852,9.95 60.1014815,9.65 60.5977778,9.075 C61.1188889,8.5 61.367037,7.75 61.367037,6.875 C61.367037,6.15 61.1933333,5.5 60.8211111,5 C60.4737037,4.475 60.0518519,4.15 59.6051852,4.05 C59.1337037,3.925 58.3892593,3.875 57.347037,3.875 L56.3544444,3.875 L56.3544444,9.95 L56.3792593,9.95 Z" id="Shape" fill="url(#linearGradient-4)"></path>
                </g>
                <g id="Group" transform="translate(29.000000, 5.000000)" fill-rule="nonzero">
                    <path d="M21.3571429,14.6666667 C14.9626374,12.3636364 7.93626374,12.3636364 1.54175824,14.6666667 C1.21318681,14.7878788 1.03626374,15.1515152 1.16263736,15.4666667 C1.28901099,15.7818182 1.66813187,15.9515152 1.9967033,15.830303 C8.08791209,13.6242424 14.7857143,13.6242424 20.8769231,15.830303 C20.9527473,15.8545455 21.0285714,15.8787879 21.1043956,15.8787879 C21.3571429,15.8787879 21.6098901,15.7333333 21.710989,15.4666667 C21.8626374,15.1515152 21.710989,14.7878788 21.3571429,14.6666667 Z" id="Shape" fill="url(#linearGradient-5)"></path>
                    <path d="M21.3571429,10.4242424 C14.9626374,8.12121212 7.93626374,8.12121212 1.54175824,10.4242424 C1.21318681,10.5454545 1.03626374,10.9090909 1.16263736,11.2242424 C1.28901099,11.5393939 1.66813187,11.7090909 1.9967033,11.5878788 C8.08791209,9.38181818 14.7857143,9.38181818 20.8769231,11.5878788 C20.9527473,11.6121212 21.0285714,11.6363636 21.1043956,11.6363636 C21.3571429,11.6363636 21.6098901,11.4909091 21.710989,11.2242424 C21.8626374,10.9090909 21.710989,10.5454545 21.3571429,10.4242424 Z" id="Shape" fill="url(#linearGradient-6)"></path>
                    <path d="M3.20989011,13.6727273 C3.74065934,13.5030303 4.04395604,12.969697 3.89230769,12.4848485 C3.74065934,11.9757576 3.15934066,11.7090909 2.57802198,11.9030303 C1.9967033,12.0969697 1.69340659,12.6545455 1.8956044,13.1393939 C2.0978022,13.6 2.67912088,13.8424242 3.20989011,13.6727273 Z" id="Shape" fill="url(#linearGradient-7)"></path>
                    <path d="M7.38021978,12.7030303 C7.91098901,12.630303 8.31538462,12.1454545 8.23956044,11.6363636 C8.18901099,11.1272727 7.63296703,10.7636364 7.05164835,10.8363636 C6.47032967,10.9333333 6.06593407,11.4424242 6.19230769,11.9515152 C6.31868132,12.4606061 6.82417582,12.7757576 7.38021978,12.7030303 Z" id="Shape" fill="url(#linearGradient-8)"></path>
                    <path d="M12.6626374,11.4424242 C12.6879121,10.9333333 12.232967,10.4727273 11.6263736,10.4727273 C11.0197802,10.4727273 10.5648352,10.9090909 10.5901099,11.4424242 C10.6153846,11.9515152 11.0703297,12.3636364 11.6263736,12.3636364 C12.1571429,12.3636364 12.6373626,11.9757576 12.6626374,11.4424242 Z" id="Shape" fill="url(#linearGradient-9)"></path>
                    <path d="M17.0351648,11.9515152 C17.1362637,11.4424242 16.7571429,10.9333333 16.1758242,10.8363636 C15.5945055,10.7393939 15.0637363,11.1030303 14.9879121,11.6363636 C14.9373626,12.1454545 15.3164835,12.630303 15.8472527,12.7030303 C16.4032967,12.7757576 16.9340659,12.4606061 17.0351648,11.9515152 Z" id="Shape" fill="url(#linearGradient-10)"></path>
                    <path d="M21.3318681,13.1151515 C21.5340659,12.630303 21.2307692,12.0727273 20.6494505,11.8787879 C20.0681319,11.6848485 19.4868132,11.9757576 19.3351648,12.4606061 C19.1835165,12.969697 19.4868132,13.4787879 20.0175824,13.6484848 C20.5483516,13.8424242 21.1296703,13.6 21.3318681,13.1151515 Z" id="Shape" fill="url(#linearGradient-11)"></path>
                    <path d="M22.7725275,1.57575758 C22.7725275,0.703030303 22.0395604,0.0242424242 21.1549451,0.0242424242 C20.2450549,0.0242424242 19.5373626,0.727272727 19.5373626,1.57575758 C19.5373626,2.10909091 19.8153846,2.56969697 20.2197802,2.83636364 C19.9417582,3.32121212 19.410989,3.70909091 18.4505495,3.75757576 L15.4175824,1.28484848 C15.1648352,1.09090909 14.810989,1.09090909 14.5835165,1.28484848 L11.5252747,3.80606061 L8.46703297,1.09090909 C8.21428571,0.872727273 7.83516484,0.872727273 7.58241758,1.09090909 L4.54945055,3.75757576 C3.58901099,3.70909091 3.05824176,3.2969697 2.78021978,2.83636364 C3.18461538,2.54545455 3.46263736,2.08484848 3.46263736,1.57575758 C3.46263736,0.703030303 2.72967033,0.0242424242 1.84505495,0.0242424242 C0.935164835,0.0242424242 0.227472527,0.727272727 0.227472527,1.57575758 C0.227472527,2.20606061 0.631868132,2.76363636 1.21318681,3.00606061 L1.21318681,8.24242424 C1.21318681,8.33939394 1.21318681,8.46060606 1.28901099,8.55757576 C1.39010989,8.77575758 1.61758242,8.8969697 1.87032967,8.8969697 C1.87032967,8.8969697 1.8956044,8.8969697 1.8956044,8.8969697 C1.97142857,8.8969697 2.04725275,8.87272727 2.0978022,8.84848485 C5.13076923,7.75757576 8.31538462,7.2 11.5505495,7.2 C14.7857143,7.2 17.9703297,7.75757576 21.0032967,8.84848485 C21.0791209,8.87272727 21.1296703,8.87272727 21.2054945,8.8969697 C21.2054945,8.8969697 21.2307692,8.8969697 21.2307692,8.8969697 C21.5846154,8.8969697 21.8879121,8.63030303 21.8879121,8.26666667 C21.8879121,8.24242424 21.8879121,8.21818182 21.8879121,8.19393939 L21.8879121,3.00606061 C22.3681319,2.76363636 22.7725275,2.23030303 22.7725275,1.57575758 Z M20.4725275,7.41818182 C17.5659341,6.47272727 14.532967,5.98787879 11.4494505,5.98787879 C8.36593407,5.98787879 5.33296703,6.47272727 2.42637363,7.41818182 L2.42637363,4.38787879 C2.98241758,4.77575758 3.74065934,5.04242424 4.72637363,5.04242424 C4.87802198,5.04242424 5.05494505,4.99393939 5.15604396,4.87272727 L7.96153846,2.42424242 L10.6912088,4.82424242 C10.7164835,4.84848485 10.7417582,4.87272727 10.767033,4.8969697 L11.0956044,5.11515152 C11.3230769,5.26060606 11.6010989,5.26060606 11.8032967,5.11515152 L12.1318681,4.8969697 C12.1571429,4.87272727 12.1824176,4.87272727 12.2076923,4.84848485 L14.9373626,2.59393939 L17.7428571,4.87272727 C17.8692308,4.96969697 18.0208791,5.01818182 18.1725275,5.01818182 C19.1582418,5.01818182 19.9164835,4.77575758 20.4725275,4.36363636 L20.4725275,7.41818182 L20.4725275,7.41818182 Z" id="Shape" fill="url(#linearGradient-12)"></path>
                </g>
                <g id="Group" transform="translate(53.000000, 14.000000)" fill-rule="nonzero">
                    <polygon id="Shape" fill="url(#linearGradient-13)" points="10.5506024 1.44666667 11.2843373 3.52333333 13.6626506 3.52333333 11.739759 4.80666667 12.473494 6.88333333 10.5506024 5.6 8.62771084 6.88333333 9.36144578 4.80666667 7.43855422 3.52333333 9.81686747 3.52333333"></polygon>
                    <g id="Shape">
                        <polygon fill="url(#linearGradient-14)" points="2.17590361 0 2.65662651 1.33 4.1746988 1.33 2.93493976 2.14666667 3.41566265 3.47666667 2.17590361 2.66 0.936144578 3.47666667 1.41686747 2.14666667 0.202409639 1.33 1.69518072 1.33"></polygon>
                        <polygon fill="url(#linearGradient-15)" points="18.9253012 0 19.4060241 1.33 20.9240964 1.33 19.6843373 2.14666667 20.1650602 3.47666667 18.9253012 2.66 17.7108434 3.47666667 18.1662651 2.14666667 16.9518072 1.33 18.4698795 1.33"></polygon>
                    </g>
                </g>
                <g id="Group" transform="translate(5.000000, 14.000000)" fill-rule="nonzero">
                    <polygon id="Shape" fill="url(#linearGradient-16)" points="10 1.44666667 10.7073171 3.52333333 13 3.52333333 11.1463415 4.80666667 11.8536585 6.88333333 10 5.6 8.14634146 6.88333333 8.85365854 4.80666667 7 3.52333333 9.29268293 3.52333333"></polygon>
                    <g id="Shape">
                        <polygon fill="url(#linearGradient-17)" points="1.92682927 0 2.36585366 1.33 3.82926829 1.33 2.65853659 2.14666667 3.09756098 3.47666667 1.92682927 2.66 0.731707317 3.47666667 1.19512195 2.14666667 0 1.33 1.46341463 1.33"></polygon>
                        <polygon fill="url(#linearGradient-18)" points="18.0731707 0 18.5365854 1.33 20 1.33 18.804878 2.14666667 19.2439024 3.47666667 18.0731707 2.66 16.8780488 3.47666667 17.3414634 2.14666667 16.1463415 1.33 17.6097561 1.33"></polygon>
                    </g>
                </g>
                <rect id="Rectangle-8-Copy" x="0" y="0" width="80" height="50"></rect>
            </g>
        </g>
    </g>
</svg>