<?xml version="1.0" encoding="UTF-8" standalone="no"?>
<svg width="60px" height="60px" viewBox="0 0 60 60" version="1.1" xmlns="http://www.w3.org/2000/svg" xmlns:xlink="http://www.w3.org/1999/xlink">
    <!-- Generator: Sketch 45.1 (43504) - http://www.bohemiancoding.com/sketch -->
    <title>tng4.0_TopUp_icon_online_bank</title>
    <desc>Created with Sketch.</desc>
    <defs></defs>
    <g id="Cut-Image" stroke="none" stroke-width="1" fill="none" fill-rule="evenodd">
        <g id="tng4.0_TopUp_icon_online_bank">
            <g id="Group-4">
                <g id="InternetBanking" transform="translate(4.000000, 5.000000)" fill-rule="nonzero">
                    <g id="Group">
                        <path d="M44.5,31.5 L7.5,31.5 C5.7,31.5 4.2,30 4.2,28.2 L4.2,3.5 C4.2,1.7 5.7,0.2 7.5,0.2 L44.5,0.2 C46.3,0.2 47.8,1.7 47.8,3.5 L47.8,28.2 C47.8,30 46.3,31.5 44.5,31.5 Z" id="Shape" fill="#00BAC2"></path>
                        <rect id="Rectangle-path" fill="#FFFFFF" x="8" y="4.6" width="35.9" height="22.7"></rect>
                        <polygon id="Shape" fill="#00BDCD" points="47 33.7 5 33.7 0.4 45.1 0.4 50.7 51.6 50.7 51.6 45.1"></polygon>
                        <rect id="Rectangle-path" fill="#445260" x="2.7" y="47.9" width="46.9" height="1.2"></rect>
                        <polygon id="Shape" fill="#445260" points="48 42.2 4.3 42.2 6.9 35.3 45.4 35.3"></polygon>
                        <polygon id="Shape" fill="#445260" points="24.2 46 12.9 46 14.2 43.2 22.9 43.2"></polygon>
                    </g>
                    <g id="Group" transform="translate(19.000000, 7.000000)" fill="#F6B051">
                        <path d="M7.7,0.4 L13.6,6.3 C14,6.7 14,7.3 13.6,7.7 L0.4,7.7 C-2.77555756e-17,7.3 -2.77555756e-17,6.7 0.4,6.3 L6.3,0.4 C6.7,0 7.3,0 7.7,0.4 Z" id="Shape"></path>
                        <g transform="translate(1.000000, 9.000000)" id="Shape">
                            <path d="M1.8,5.8 L1.1,5.8 C0.8,5.8 0.6,5.6 0.6,5.3 L0.6,0.8 C0.6,0.5 0.8,0.3 1.1,0.3 L1.8,0.3 C2.1,0.3 2.3,0.5 2.3,0.8 L2.3,5.3 C2.3,5.6 2.1,5.8 1.8,5.8 Z"></path>
                            <path d="M6.3,5.8 L5.6,5.8 C5.3,5.8 5.1,5.6 5.1,5.3 L5.1,0.8 C5.1,0.5 5.3,0.3 5.6,0.3 L6.3,0.3 C6.6,0.3 6.8,0.5 6.8,0.8 L6.8,5.3 C6.8,5.6 6.6,5.8 6.3,5.8 Z"></path>
                            <path d="M10.9,5.8 L10.2,5.8 C9.9,5.8 9.7,5.6 9.7,5.3 L9.7,0.8 C9.7,0.5 9.9,0.3 10.2,0.3 L10.9,0.3 C11.2,0.3 11.4,0.5 11.4,0.8 L11.4,5.3 C11.4,5.6 11.1,5.8 10.9,5.8 Z"></path>
                        </g>
                        <path d="M12.9,17.6 L1.1,17.6 C0.8,17.6 0.5,17.3 0.5,17 L0.5,17 C0.5,16.7 0.8,16.4 1.1,16.4 L12.9,16.4 C13.2,16.4 13.5,16.7 13.5,17 L13.5,17 C13.5,17.4 13.2,17.6 12.9,17.6 Z" id="Shape"></path>
                    </g>
                </g>
                <rect id="Rectangle-4" x="0" y="0" width="60" height="60"></rect>
            </g>
        </g>
    </g>
</svg>