<?xml version="1.0" encoding="UTF-8" standalone="no"?>
<svg width="56px" height="41px" viewBox="0 0 56 41" version="1.1" xmlns="http://www.w3.org/2000/svg" xmlns:xlink="http://www.w3.org/1999/xlink">
    <!-- Generator: Sketch 45.1 (43504) - http://www.bohemiancoding.com/sketch -->
    <title>VIP</title>
    <desc>Created with Sketch.</desc>
    <defs>
        <linearGradient x1="11.0598086%" y1="-31.4939877%" x2="171.34689%" y2="189.364908%" id="linearGradient-1">
            <stop stop-color="#696A6D" offset="0%"></stop>
            <stop stop-color="#FFFFFF" offset="54.84%"></stop>
            <stop stop-color="#000000" offset="100%"></stop>
        </linearGradient>
        <linearGradient x1="-97.0444201%" y1="-61.347037%" x2="196.17221%" y2="160.875185%" id="linearGradient-2">
            <stop stop-color="#696A6D" offset="0%"></stop>
            <stop stop-color="#FFFFFF" offset="54.84%"></stop>
            <stop stop-color="#000000" offset="100%"></stop>
        </linearGradient>
        <linearGradient x1="-78.5207598%" y1="-96.6519753%" x2="103.297422%" y2="125.570247%" id="linearGradient-3">
            <stop stop-color="#696A6D" offset="0%"></stop>
            <stop stop-color="#FFFFFF" offset="54.84%"></stop>
            <stop stop-color="#000000" offset="100%"></stop>
        </linearGradient>
        <linearGradient x1="-32.9110694%" y1="-1299.27045%" x2="218.49606%" y2="2791.63864%" id="linearGradient-4">
            <stop stop-color="#696A6D" offset="0%"></stop>
            <stop stop-color="#FFFFFF" offset="54.84%"></stop>
            <stop stop-color="#000000" offset="100%"></stop>
        </linearGradient>
        <linearGradient x1="-371.246753%" y1="-522.885526%" x2="1369.01299%" y2="1845.53553%" id="linearGradient-5">
            <stop stop-color="#696A6D" offset="0%"></stop>
            <stop stop-color="#FFFFFF" offset="54.84%"></stop>
            <stop stop-color="#000000" offset="100%"></stop>
        </linearGradient>
        <linearGradient x1="-421.075325%" y1="-591.092105%" x2="1319.18442%" y2="1777.32895%" id="linearGradient-6">
            <stop stop-color="#696A6D" offset="0%"></stop>
            <stop stop-color="#FFFFFF" offset="54.84%"></stop>
            <stop stop-color="#000000" offset="100%"></stop>
        </linearGradient>
        <linearGradient x1="-470.905195%" y1="-659.298684%" x2="1269.35455%" y2="1709.12237%" id="linearGradient-7">
            <stop stop-color="#696A6D" offset="0%"></stop>
            <stop stop-color="#FFFFFF" offset="54.84%"></stop>
            <stop stop-color="#000000" offset="100%"></stop>
        </linearGradient>
        <linearGradient x1="-528.901316%" y1="-727.505263%" x2="1234.25658%" y2="1640.91579%" id="linearGradient-8">
            <stop stop-color="#696A6D" offset="0%"></stop>
            <stop stop-color="#FFFFFF" offset="54.84%"></stop>
            <stop stop-color="#000000" offset="100%"></stop>
        </linearGradient>
        <linearGradient x1="-571.867532%" y1="-795.707895%" x2="1168.39221%" y2="1572.71447%" id="linearGradient-9">
            <stop stop-color="#696A6D" offset="0%"></stop>
            <stop stop-color="#FFFFFF" offset="54.84%"></stop>
            <stop stop-color="#000000" offset="100%"></stop>
        </linearGradient>
        <linearGradient x1="24.1882604%" y1="-10.8392569%" x2="167.197866%" y2="316.572527%" id="linearGradient-10">
            <stop stop-color="#696A6D" offset="0%"></stop>
            <stop stop-color="#FFFFFF" offset="54.84%"></stop>
            <stop stop-color="#000000" offset="100%"></stop>
        </linearGradient>
    </defs>
    <g id="Page-1" stroke="none" stroke-width="1" fill="none" fill-rule="evenodd">
        <g id="Membership-Comparison" transform="translate(-159.000000, -79.000000)">
            <g id="VIP" transform="translate(148.000000, 75.000000)">
                <g id="Group" transform="translate(11.000000, 24.000000)" fill-rule="nonzero">
                    <polygon id="Shape" fill="url(#linearGradient-1)" points="9.09671362 20.7722892 2.76056338 3.61807229 0.210328638 3.61807229 0.210328638 0.151807229 11.0685446 0.151807229 11.0685446 3.61807229 8.3342723 3.61807229 11.9098592 13.8650602 15.485446 3.61807229 12.7774648 3.61807229 12.7774648 0.151807229 22.1896714 0.151807229 22.1896714 3.61807229 19.6131455 3.61807229 13.513615 20.7722892 9.09671362 20.7722892"></polygon>
                    <polygon id="Shape" fill="url(#linearGradient-2)" points="22.8206573 20.6204819 22.8206573 17.1542169 26.0544601 17.1542169 26.0544601 3.59277108 22.8206573 3.59277108 22.8206573 0.126506024 34.8356808 0.126506024 34.8356808 3.59277108 31.5755869 3.59277108 31.5755869 17.1542169 34.8356808 17.1542169 34.8356808 20.6204819"></polygon>
                    <path d="M47.6394366,17.1795181 L47.6394366,20.6457831 L36.4394366,20.6457831 L36.4394366,17.1795181 L39.1474178,17.1795181 L39.1474178,3.61807229 L36.4394366,3.61807229 L36.4394366,0.151807229 L47.6394366,0.151807229 C50.2422535,0.151807229 52.2666667,0.73373494 53.686385,1.92289157 C55.1061033,3.11204819 55.8159624,4.68072289 55.8159624,6.67951807 C55.8159624,7.81807229 55.5530516,8.85542169 55.0535211,9.76626506 C54.5539906,10.7024096 53.9230047,11.4108434 53.1342723,11.8915663 C52.3455399,12.3975904 51.4516432,12.726506 50.4525822,12.9036145 C49.4535211,13.0807229 48.1915493,13.1819277 46.6929577,13.1819277 L44.6685446,13.1819277 L44.6685446,17.1542169 L47.6394366,17.1542169 L47.6394366,17.1795181 Z M44.6685446,9.79156627 L45.4835681,9.79156627 C47.3765258,9.79156627 48.6122066,9.48795181 49.1380282,8.9060241 C49.6901408,8.32409639 49.9530516,7.56506024 49.9530516,6.67951807 C49.9530516,5.94578313 49.7690141,5.28795181 49.3746479,4.78192771 C49.0065728,4.25060241 48.5596244,3.92168675 48.086385,3.82048193 C47.5868545,3.6939759 46.7981221,3.64337349 45.6938967,3.64337349 L44.6422535,3.64337349 L44.6422535,9.79156627 L44.6685446,9.79156627 Z" id="Shape" fill="url(#linearGradient-3)"></path>
                </g>
                <g id="Group" transform="translate(28.000000, 4.000000)" fill-rule="nonzero">
                    <path d="M18.2042553,17.6013889 L5.71914894,17.6013889 C5.41276596,17.6013889 5.15744681,17.8652778 5.15744681,18.1819444 C5.15744681,18.4986111 5.41276596,18.7625 5.71914894,18.7625 L18.2042553,18.7625 C18.5106383,18.7625 18.7659574,18.4986111 18.7659574,18.1819444 C18.7659574,17.8652778 18.5106383,17.6013889 18.2042553,17.6013889 Z" id="Shape" fill="url(#linearGradient-4)"></path>
                    <polygon id="Shape" fill="url(#linearGradient-5)" points="6.43404255 16.9416667 6.66382979 16.1763889 7.42978723 15.9388889 6.66382979 15.7013889 6.43404255 14.9361111 6.20425532 15.7013889 5.46382979 15.9388889 6.20425532 16.1763889"></polygon>
                    <polygon id="Shape" fill="url(#linearGradient-6)" points="9.44680851 16.1763889 10.187234 15.9388889 9.44680851 15.7013889 9.21702128 14.9361111 8.96170213 15.7013889 8.2212766 15.9388889 8.96170213 16.1763889 9.21702128 16.9416667"></polygon>
                    <polygon id="Shape" fill="url(#linearGradient-7)" points="12.2042553 16.1763889 12.9446809 15.9388889 12.2042553 15.7013889 11.9744681 14.9361111 11.7446809 15.7013889 10.9787234 15.9388889 11.7446809 16.1763889 11.9744681 16.9416667"></polygon>
                    <polygon id="Shape" fill="url(#linearGradient-8)" points="14.9617021 16.1763889 15.7021277 15.9388889 14.9617021 15.7013889 14.7319149 14.9361111 14.5021277 15.7013889 13.7617021 15.9388889 14.5021277 16.1763889 14.7319149 16.9416667"></polygon>
                    <polygon id="Shape" fill="url(#linearGradient-9)" points="17.7191489 16.1763889 18.4851064 15.9388889 17.7191489 15.7013889 17.4893617 14.9361111 17.2595745 15.7013889 16.5191489 15.9388889 17.2595745 16.1763889 17.4893617 16.9416667"></polygon>
                    <path d="M23.8212766,7.09861111 C23.7702128,7.07222222 23.7446809,7.07222222 23.6680851,7.04583333 C23.6170213,7.01944444 23.5404255,6.99305556 23.4638298,6.99305556 C23.3106383,6.96666667 23.1319149,6.91388889 22.9021277,6.91388889 C22.8510638,6.91388889 22.8,6.91388889 22.7234043,6.91388889 C22.6723404,6.91388889 22.5957447,6.91388889 22.5446809,6.91388889 C22.4170213,6.91388889 22.2893617,6.91388889 22.1617021,6.94027778 C22.0851064,6.94027778 22.0340426,6.96666667 21.9574468,6.96666667 C21.8808511,6.96666667 21.8297872,6.99305556 21.7531915,7.01944444 C21.6765957,7.04583333 21.6,7.07222222 21.5234043,7.07222222 C21.4468085,7.09861111 21.3702128,7.125 21.293617,7.15138889 C21.2170213,7.17777778 21.1404255,7.20416667 21.0638298,7.23055556 C20.987234,7.25694444 20.9106383,7.30972222 20.8340426,7.33611111 C20.6808511,7.41527778 20.5276596,7.49444444 20.3744681,7.57361111 C20.3234043,7.6 20.2723404,7.62638889 20.2212766,7.67916667 C20.5276596,6.80833333 20.8595745,5.09305556 18.8425532,4.53888889 C18.3829787,4.40694444 18,4.43333333 17.693617,4.53888889 C17.6680851,4.5125 17.6170213,4.5125 17.5914894,4.48611111 L12.2553191,2.66527778 C12.2553191,2.66527778 12.2553191,2.63888889 12.2553191,2.63888889 C12.2042553,2.32222222 12.1787234,2.03194444 12.1276596,1.76805556 C12.1021277,1.50416667 12.0765957,1.29305556 12.0510638,1.10833333 C12.0255319,0.738888889 12.1276596,0.527777778 12.1276596,0.527777778 C12.1531915,0.448611111 12.1787234,0.369444444 12.1276596,0.290277778 C12.0510638,0.158333333 11.8978723,0.105555556 11.7702128,0.158333333 C11.6425532,0.2375 11.5914894,0.395833333 11.6425532,0.527777778 C11.6425532,0.527777778 11.7446809,0.738888889 11.7191489,1.10833333 C11.693617,1.29305556 11.6680851,1.53055556 11.6425532,1.76805556 C11.6170213,2.03194444 11.5659574,2.32222222 11.5148936,2.63888889 C11.5148936,2.63888889 11.5148936,2.66527778 11.5148936,2.66527778 L6.40851064,4.48611111 C6.35744681,4.5125 6.30638298,4.53888889 6.25531915,4.56527778 C5.92340426,4.43333333 5.4893617,4.40694444 5.00425532,4.53888889 C2.98723404,5.09305556 3.31914894,6.80833333 3.62553191,7.67916667 C3.57446809,7.65277778 3.52340426,7.62638889 3.47234043,7.57361111 C3.31914894,7.49444444 3.16595745,7.38888889 3.01276596,7.33611111 C2.93617021,7.30972222 2.85957447,7.25694444 2.78297872,7.23055556 C2.70638298,7.20416667 2.62978723,7.17777778 2.55319149,7.15138889 C2.47659574,7.125 2.4,7.09861111 2.32340426,7.07222222 C2.24680851,7.04583333 2.17021277,7.01944444 2.09361702,7.01944444 C2.01702128,6.99305556 1.96595745,6.96666667 1.8893617,6.96666667 C1.81276596,6.96666667 1.76170213,6.94027778 1.68510638,6.94027778 C1.55744681,6.91388889 1.42978723,6.91388889 1.30212766,6.91388889 C1.25106383,6.91388889 1.17446809,6.91388889 1.12340426,6.91388889 C1.07234043,6.91388889 0.995744681,6.91388889 0.944680851,6.91388889 C0.714893617,6.91388889 0.536170213,6.96666667 0.382978723,6.99305556 C0.306382979,6.99305556 0.229787234,7.04583333 0.178723404,7.04583333 C0.127659574,7.07222222 0.0765957447,7.07222222 0.0255319149,7.09861111 C0.10212766,7.125 0.0765957447,7.125 0.0765957447,7.125 C0.0765957447,7.125 0.127659574,7.125 0.204255319,7.09861111 C0.255319149,7.09861111 0.306382979,7.09861111 0.357446809,7.07222222 C0.408510638,7.07222222 0.485106383,7.04583333 0.561702128,7.04583333 C0.714893617,7.04583333 0.893617021,7.04583333 1.09787234,7.07222222 C1.14893617,7.07222222 1.2,7.09861111 1.25106383,7.09861111 C1.30212766,7.09861111 1.35319149,7.125 1.40425532,7.15138889 C1.50638298,7.17777778 1.63404255,7.20416667 1.73617021,7.25694444 C1.78723404,7.28333333 1.86382979,7.30972222 1.91489362,7.33611111 C1.96595745,7.3625 2.04255319,7.38888889 2.09361702,7.41527778 C2.14468085,7.44166667 2.2212766,7.46805556 2.27234043,7.52083333 C2.32340426,7.54722222 2.4,7.6 2.45106383,7.62638889 C2.50212766,7.67916667 2.5787234,7.70555556 2.62978723,7.75833333 C2.68085106,7.78472222 2.73191489,7.8375 2.78297872,7.86388889 C2.4,8.075 2.2212766,8.49722222 2.32340426,8.94583333 C2.45106383,9.44722222 2.96170213,9.7375 3.4212766,9.57916667 C3.67659574,9.5 3.88085106,9.31527778 3.98297872,9.07777778 C4.03404255,9.13055556 4.08510638,9.20972222 4.13617021,9.2625 L4.2893617,9.47361111 L4.44255319,9.68472222 C4.64680851,9.975 4.82553191,10.2652778 4.9787234,10.5555556 C5.15744681,10.8458333 5.3106383,11.1361111 5.43829787,11.4263889 C5.59148936,11.7166667 5.71914894,11.9805556 5.84680851,12.2708333 C5.97446809,12.5347222 6.07659574,12.7986111 6.1787234,13.0361111 C6.22978723,13.1944444 6.30638298,13.3263889 6.35744681,13.4847222 L5.74468085,13.4847222 C5.43829787,13.4847222 5.18297872,13.7486111 5.18297872,14.0652778 C5.18297872,14.3819444 5.43829787,14.6458333 5.74468085,14.6458333 L18.2297872,14.6458333 C18.5361702,14.6458333 18.7914894,14.3819444 18.7914894,14.0652778 C18.7914894,13.7486111 18.5361702,13.4847222 18.2297872,13.4847222 L17.693617,13.4847222 C17.7446809,13.3527778 17.7957447,13.1944444 17.8723404,13.0361111 C17.8978723,12.9569444 17.9234043,12.8777778 17.9744681,12.7986111 C18,12.7722222 18,12.7458333 18.0255319,12.6930556 C18.0255319,12.6930556 18.0255319,12.6666667 18.0255319,12.6666667 C18.0765957,12.5347222 18.1531915,12.4027778 18.2042553,12.2444444 C18.3319149,11.9805556 18.4595745,11.6902778 18.612766,11.4 C18.7659574,11.1097222 18.9191489,10.8194444 19.0723404,10.5291667 C19.2510638,10.2388889 19.4297872,9.94861111 19.6085106,9.65833333 L19.7617021,9.44722222 L19.9148936,9.23611111 C19.9659574,9.18333333 20.0170213,9.10416667 20.0680851,9.05138889 C20.1702128,9.28888889 20.3744681,9.47361111 20.6297872,9.55277778 C21.1148936,9.68472222 21.6,9.39444444 21.7276596,8.91944444 C21.8553191,8.49722222 21.6510638,8.04861111 21.2680851,7.8375 C21.3191489,7.81111111 21.3702128,7.75833333 21.4212766,7.73194444 C21.4723404,7.67916667 21.5489362,7.65277778 21.6,7.6 C21.6510638,7.57361111 21.7276596,7.52083333 21.7787234,7.49444444 C21.8297872,7.46805556 21.906383,7.44166667 21.9574468,7.38888889 C22.0085106,7.3625 22.0851064,7.33611111 22.1361702,7.30972222 C22.187234,7.28333333 22.2638298,7.25694444 22.3148936,7.23055556 C22.4425532,7.17777778 22.5446809,7.15138889 22.6468085,7.125 C22.6978723,7.09861111 22.7489362,7.09861111 22.8,7.07222222 C22.8510638,7.07222222 22.9021277,7.04583333 22.9531915,7.04583333 C23.1574468,7.01944444 23.3361702,7.01944444 23.4893617,7.01944444 C23.5659574,7.01944444 23.6425532,7.01944444 23.693617,7.04583333 C23.7191489,7.09861111 23.7702128,7.125 23.8212766,7.09861111 C23.8978723,7.125 23.9489362,7.125 23.9489362,7.125 C23.9489362,7.125 23.8978723,7.125 23.8212766,7.09861111 Z M5.77021277,9.44722222 C5.77021277,9.44722222 5.77021277,9.44722222 5.77021277,9.44722222 C5.77021277,9.44722222 3.72765957,6.33333333 5.64255319,6.175 C7.55744681,6.01666667 6.15319149,7.94305556 6.15319149,7.94305556 C7.42978723,8.075 7.78723404,6.46527778 7.2,5.38333333 L11.4382979,3.87916667 C11.387234,4.19583333 11.3361702,4.5125 11.2851064,4.82916667 C11.2085106,5.225 11.1574468,5.64722222 11.0808511,6.04305556 C11.0297872,6.46527778 10.9787234,6.8875 10.9276596,7.30972222 C10.9021277,7.73194444 10.8765957,8.15416667 10.8510638,8.57638889 C10.8510638,8.99861111 10.8255319,9.39444444 10.8510638,9.79027778 C10.8510638,10.0277778 10.8765957,10.2652778 10.9021277,10.4763889 L7.55744681,11.6638889 C7.48085106,11.5583333 7.40425532,11.4527778 7.32765957,11.3472222 C7.14893617,11.0833333 6.94468085,10.8194444 6.74042553,10.5555556 C6.53617021,10.2916667 6.30638298,10.0013889 6.05106383,9.7375 C5.94893617,9.63194444 5.87234043,9.55277778 5.77021277,9.44722222 Z M8.55319149,13.2472222 C8.45106383,13.0625 8.29787234,12.825 8.14468085,12.5611111 L11.0042553,11.5319444 C11.0297872,11.6638889 11.0553191,11.7958333 11.0808511,11.9277778 C11.1319149,12.2444444 11.2085106,12.5347222 11.2851064,12.7986111 C11.3617021,13.0625 11.412766,13.2736111 11.4893617,13.4583333 L8.68085106,13.4583333 C8.65531915,13.4055556 8.60425532,13.3527778 8.55319149,13.2472222 Z M12.4340426,13.4847222 C12.5106383,13.3 12.5617021,13.0888889 12.6382979,12.825 C12.7148936,12.5611111 12.7659574,12.2708333 12.8425532,11.9541667 C12.8680851,11.8222222 12.893617,11.6902778 12.9191489,11.5319444 L15.8808511,12.5347222 C15.7021277,12.7986111 15.5744681,13.0361111 15.4468085,13.2208333 C15.3957447,13.3 15.3446809,13.3791667 15.3191489,13.4583333 L12.4340426,13.4583333 L12.4340426,13.4847222 Z M17.9489362,9.7375 C17.7191489,10.0013889 17.4893617,10.2916667 17.2595745,10.5555556 C17.0553191,10.8194444 16.8510638,11.0833333 16.6723404,11.3472222 C16.5957447,11.4527778 16.5446809,11.5319444 16.4680851,11.6375 L13.0212766,10.45 C13.0468085,10.2388889 13.0468085,10.0013889 13.0723404,9.76388889 C13.0978723,9.36805556 13.0723404,8.97222222 13.0723404,8.55 C13.0723404,8.12777778 13.0468085,7.70555556 12.9957447,7.28333333 C12.9702128,6.86111111 12.9191489,6.43888889 12.8425532,6.01666667 C12.7914894,5.59444444 12.7148936,5.19861111 12.6382979,4.80277778 C12.587234,4.45972222 12.5361702,4.14305556 12.4851064,3.82638889 L16.8255319,5.30416667 C16.212766,6.38611111 16.5702128,8.04861111 17.8723404,7.89027778 C17.8723404,7.89027778 16.4680851,5.96388889 18.3829787,6.12222222 C20.2978723,6.28055556 18.2553191,9.39444444 18.2297872,9.39444444 C18.2297872,9.39444444 18.2297872,9.39444444 18.2297872,9.39444444 C18.1531915,9.55277778 18.0510638,9.63194444 17.9489362,9.7375 Z" id="Shape" fill="url(#linearGradient-10)"></path>
                </g>
                <rect id="Rectangle-8" x="0" y="0" width="80" height="50"></rect>
            </g>
        </g>
    </g>
</svg>