<svg xmlns="http://www.w3.org/2000/svg" xmlns:xlink="http://www.w3.org/1999/xlink" viewBox="265 0 20 20"><defs><style>.a{clip-path:url(#b);}.b{fill:none;stroke:#ccc;stroke-miterlimit:10;stroke-width:1.5px;}.c{fill:#fc2f2f;opacity:0;}</style><clipPath id="b"><rect x="265" width="20" height="20"/></clipPath></defs><g id="a" class="a"><g transform="translate(271.473 4.5)"><path class="b" d="M16.178,12.556a1.926,1.926,0,0,0-1.63-1.724c-.593-.148-1.111-.222-2.371-.493-1.556-.345-1.383-1.207-1.037-1.552a4.3,4.3,0,0,0,1.63-3.572A3.821,3.821,0,0,0,8.943,1.5a3.775,3.775,0,0,0-3.63,3.966A4.375,4.375,0,0,0,6.968,8.788c.346.345.519,1.207-1.037,1.552-1.259.271-1.778.345-2.371.493a1.949,1.949,0,0,0-1.63,1.724L1.486,16.62a.752.752,0,0,0,.741.837H15.857a.752.752,0,0,0,.741-.837Z" transform="translate(-5.515 -4.288)"/><rect class="c" width="20" height="20" transform="translate(-6.474 -4.5)"/></g></g></svg>