<?xml version="1.0" encoding="UTF-8" standalone="no"?>
<svg width="220px" height="220px" viewBox="0 0 220 220" version="1.1" xmlns="http://www.w3.org/2000/svg" xmlns:xlink="http://www.w3.org/1999/xlink">
    <!-- Generator: Sketch 45.1 (43504) - http://www.bohemiancoding.com/sketch -->
    <title>tng4.0_Wal.Wal.ActHist_no_ah</title>
    <desc>Created with Sketch.</desc>
    <defs>
        <polygon id="path-1" points="139.987543 24.9065343 142.348871 0.2571366 0.266250698 0.2571366 0.266250698 24.9065343"></polygon>
        <polygon id="path-3" points="138.130859 0.0445352706 134.842773 26.0496461 0.488097021 26.0496461 0.488097021 0.0445352706"></polygon>
        <polygon id="path-5" points="140.235389 0.693882743 137.735389 26.6989935 0.406059944 26.6989935 0.406059944 0.693882743 85.0000371 0.693882743"></polygon>
    </defs>
    <g id="cut-image" stroke="none" stroke-width="1" fill="none" fill-rule="evenodd">
        <g id="tng4.0_Wal.Wal.ActHist_no_ah">
            <g id="Group">
                <g id="Page-1" transform="translate(20.000000, 27.000000)">
                    <g id="Group-17" transform="translate(0.000000, 39.961482)">
                        <g id="Group-10" transform="translate(1.535895, 0.000000)">
                            <mask id="mask-2" fill="white">
                                <use xlink:href="#path-1"></use>
                            </mask>
                            <g id="Clip-9"></g>
                            <path d="M169.608114,21.0551377 C167.156826,19.4929705 165.038826,17.7548491 163.016053,16.0947595 C157.539051,11.5979824 152.367693,7.35060115 141.806879,7.19606746 C131.246065,7.04000375 125.950299,11.1328513 120.342747,15.4643845 C114.50481,19.974932 107.88971,25.0867838 95.3675586,24.9016493 C82.843871,24.718045 76.380825,19.4134086 70.6795828,14.7330271 C65.2041172,10.2377799 60.031223,5.99039874 49.4673373,5.83433502 C38.9049876,5.67980134 33.6092217,9.77264886 28.0001333,14.1041821 C22.1806273,18.6009592 15.5870301,23.6944506 3.13860138,23.542977 C1.75322411,23.5261466 0.490718444,22.5331529 0.295659782,21.1668304 C0.0468447967,19.4241188 1.41071953,17.9430435 3.10481169,17.9690542 C13.6671614,18.1235878 18.9644632,14.0322704 24.5720157,9.69920711 C30.4099525,5.19018967 37.0265881,0.0783378666 49.5502757,0.261942241 C62.0739633,0.447076653 68.5370093,5.75171305 74.2382515,10.4305645 C79.713717,14.9273417 84.8866113,19.1731928 95.4504969,19.3292566 C106.009775,19.4853203 111.305541,15.3924728 116.913093,11.0594095 C122.75103,6.55039208 129.36613,1.43854028 141.889817,1.62367469 C154.411969,1.80727906 160.873479,7.11191546 166.574721,11.792297 C168.532987,13.4003653 170.452856,14.9763028 172.593894,16.3441554 C173.69513,17.0479722 174.151291,18.423475 173.69513,19.6444441 C173.079237,21.2907633 171.091788,21.9991702 169.608114,21.0551377 Z" id="Fill-8" fill="#CCD6DB" mask="url(#mask-2)"></path>
                        </g>
                        <g id="Group-13" transform="translate(0.000000, 50.491203)">
                            <mask id="mask-4" fill="white">
                                <use xlink:href="#path-3"></use>
                            </mask>
                            <g id="Clip-12"></g>
                            <path d="M74.4586524,10.2180425 C79.9356539,14.7148196 85.1085481,18.9606708 95.6708979,19.1167345 C106.231712,19.2727982 111.527478,15.1799507 117.13503,10.8468875 C122.972967,6.33787002 129.588067,1.22601821 142.110218,1.40962259 C154.633906,1.594757 161.095416,6.8993934 166.796658,11.5797749 C172.272124,16.075022 177.445018,20.3224032 188.004296,20.4769369 C189.549406,20.4998875 190.78273,21.7667576 190.759692,23.3044443 C190.738189,24.843661 189.466468,26.0722802 187.921358,26.0493297 C175.400742,25.8657253 168.939232,20.5610889 163.23799,15.8807074 C157.760988,11.3854603 152.58963,7.13807908 142.02728,6.9835454 C131.468002,6.82748168 126.172236,10.9203292 120.564684,15.2518624 C114.726747,19.7624099 108.111647,24.8742617 95.5879595,24.6891273 C83.0658078,24.5055229 76.6027618,19.2008865 70.9015196,14.520505 C65.4245182,10.0252579 60.2516239,5.77787667 49.6892742,5.62181295 C39.1269244,5.46574924 33.8296227,9.55859676 28.2220701,13.89166 C22.3841333,18.4006774 15.7674978,23.5125292 3.24381018,23.3289249 C1.69869984,23.3059743 0.465376177,22.0391041 0.488414601,20.5014175 C0.511453026,18.9622008 1.78163817,17.7335815 3.32674851,17.7565321 C13.8890982,17.9110658 19.1864,13.8182183 24.7939526,9.48668504 C30.6318893,4.97613757 37.2485249,-0.135714234 49.7722125,0.0494201776 C62.2959001,0.234554589 68.7574103,5.53919099 74.4586524,10.2180425 Z" id="Fill-11" fill="#CCD6DB" mask="url(#mask-4)"></path>
                        </g>
                        <g id="Group-16" transform="translate(1.072229, 24.480583)">
                            <mask id="mask-6" fill="white">
                                <use xlink:href="#path-5"></use>
                            </mask>
                            <g id="Clip-15"></g>
                            <path d="M74.3766153,10.8673899 C79.8536168,15.3641671 85.0265111,19.6100183 95.5888608,19.766082 C106.149675,19.9221457 111.44544,15.8292982 117.052993,11.4962349 C122.89093,6.98721749 129.506029,1.87536569 142.028181,2.05897006 C154.551869,2.24410447 161.013379,7.54874087 166.714621,12.2291224 C172.190087,16.7243695 177.362981,20.9717507 187.922259,21.1262844 C189.467369,21.1492349 190.700693,22.4161051 190.677654,23.9537918 C190.656152,25.4930084 189.384431,26.7216277 187.839321,26.6986772 C175.318705,26.5150728 168.857195,21.2104364 163.155952,16.5300549 C157.678951,12.0348078 152.507593,7.78742655 141.945243,7.63289287 C131.385965,7.47682915 126.090199,11.5696767 120.482647,15.9012099 C114.64471,20.4117574 108.02961,25.5236092 95.5059225,25.3384748 C82.9837708,25.1548704 76.5207247,19.850234 70.8194826,15.1698525 C65.3424811,10.6746053 60.1695868,6.42722414 49.6072371,6.27116043 C39.0448874,6.11509671 33.7475856,10.2079442 28.1400331,14.5410075 C22.3020963,19.0500249 15.6854607,24.1618767 3.16177311,23.9782723 C1.61666276,23.9553218 0.3833391,22.6884516 0.406377524,21.150765 C0.429415949,19.6115483 1.69960109,18.382929 3.24471143,18.4058796 C13.8070612,18.5604132 19.1043629,14.4675657 24.7119155,10.1360325 C30.5498523,5.62548504 37.1664878,0.513633239 49.6901754,0.69876765 C62.213863,0.883902061 68.6753732,6.18853846 74.3766153,10.8673899 Z" id="Fill-14" fill="#CCD6DB" mask="url(#mask-6)"></path>
                        </g>
                    </g>
                    <g id="Group-7" transform="translate(42.586052, 0.011102)" stroke="#8DA7B3" stroke-width="4" stroke-linecap="round">
                        <path d="M13.3578398,28.4257517 C14.3257609,20.484939 15.1559121,13.7265385 15.7511482,8.88779817 C16.3181238,4.28659604 20.2392637,0.839653407 24.8916431,0.839653407 L28.4189028,0.839653407" id="Stroke-1"></path>
                        <path d="M2.37352601,121.63555 C1.06647939,133.588118 0.223964205,142.220431 0.223964205,144.576457 C0.223964205,159.388281 11.2367151,164.906205 20.5997613,164.906205 L83.3556619,164.906205 C89.1914485,164.906205 94.0893407,160.526705 94.7181361,154.74661 L110.355006,11.0078702 C110.948476,5.5796834 106.681145,0.841236995 101.198615,0.841236995 L55.3636689,0.841236995" id="Stroke-3"></path>
                        <path d="M45.2342342,0 L37.9147731,0" id="Stroke-5"></path>
                    </g>
                </g>
                <rect id="Rectangle" fill="#D0021B" opacity="0" x="0" y="0" width="220" height="220"></rect>
            </g>
        </g>
    </g>
</svg>