<svg xmlns="http://www.w3.org/2000/svg" viewBox="-12471 -24773 22.288 21.5"><defs><style>.a{fill:#00aeef}</style></defs><path class="a" d="M-12466.669-24769.644v-2.556a.8.8 0 0 0-1.6 0v2.624m0 5.455v11.821a.8.8 0 1 0 1.6 0v-11.842"/><path class="a" d="M-12463.793-24766.914a3.6 3.6 0 1 0-3.607 3.6 3.6 3.6 0 0 0 3.607-3.6zm-5.6 0a2 2 0 1 1 2 2 2 2 0 0 1-2.007-2zM-12451.589-24769.644v-2.556a.8.8 0 1 0-1.6 0v2.624m0 5.455v11.821a.8.8 0 1 0 1.6 0v-11.842"/><path class="a" d="M-12448.713-24766.914a3.6 3.6 0 1 0-3.6 3.6 3.6 3.6 0 0 0 3.6-3.6zm-5.6 0a2 2 0 1 1 2 2 2 2 0 0 1-2-2zM-12460.573-24754.849v2.549a.8.8 0 0 0 1.6 0v-2.624m.007-5.455v-11.821a.8.8 0 1 0-1.6 0v11.849"/><path class="a" d="M-12463.446-24757.587a3.6 3.6 0 1 0 3.6-3.6 3.6 3.6 0 0 0-3.6 3.6zm5.6 0a2 2 0 1 1-2-2 2 2 0 0 1 2 2z"/></svg>