<svg xmlns="http://www.w3.org/2000/svg" viewBox="-10167.65 -6148.722 16.942 21.354"><defs><style>.cls-1{fill:none;stroke:#fff;stroke-linecap:round;stroke-miterlimit:10;stroke-width:1.3px}</style></defs><g id="Group_10498" data-name="Group 10498" transform="translate(-8246 -6579)"><path id="Path_17934" data-name="Path 17934" class="cls-1" d="M15.333 7.582h1.309v10.646c0 1.895-.482 2.584-1.585 2.584-.586 0-1.481-.1-1.481-2.2V2.208s-.31-.276-.551-.482l-.724-.62a.676.676 0 0 0-.861 0l-.724.62a.676.676 0 0 1-.861 0l-.724-.62a.676.676 0 0 0-.861 0l-.724.62a.676.676 0 0 1-.861 0l-.724-.62a.676.676 0 0 0-.861 0l-.655.655a.676.676 0 0 1-.861 0l-.655-.586a.633.633 0 0 0-.93.1L1 2.483v16.262a2.22 2.22 0 0 0 2.205 2.205h11.817" transform="translate(-1922 430.033)"/><path id="Line_4598" data-name="Line 4598" class="cls-1" transform="translate(-1918.623 436.719)" d="M0 0h7.924"/><path id="Line_4599" data-name="Line 4599" class="cls-1" transform="translate(-1918.623 440.061)" d="M0 0h7.924"/><path id="Line_4600" data-name="Line 4600" class="cls-1" transform="translate(-1918.623 443.403)" d="M0 0h7.924"/></g></svg>