<svg xmlns="http://www.w3.org/2000/svg" viewBox="7504.129 3582.789 30.401 25"><defs><style>.a{fill:#00aeef}</style></defs><g transform="translate(7504.129 3582.789)"><ellipse class="a" cx="1.852" cy="1.852" rx="1.852" ry="1.852" transform="translate(20.165 5.298)"/><path class="a" d="M28.4 0H2.006A2.009 2.009 0 0 0 0 2.006v20.988A2.009 2.009 0 0 0 2.006 25H28.4a2.009 2.009 0 0 0 2-2.006V2.006A2.009 2.009 0 0 0 28.4 0zM2.006 1.646H28.4a.352.352 0 0 1 .36.36v16.873l-4.943-4.939a1.979 1.979 0 0 0-2.675-.1l-2.726 2.212a.384.384 0 0 1-.463 0l-7.048-6.844a2 2 0 0 0-2.778-.051L1.7 15.226V2.006a.344.344 0 0 1 .306-.36zM28.4 23.354H2.006a.352.352 0 0 1-.36-.36v-5.453l7.613-7.15a.384.384 0 0 1 .463 0l7 6.842a1.979 1.979 0 0 0 2.675.1l2.726-2.263c.154-.1-1.145-1.492.463 0s5.967 5.967 5.967 5.967l.154.206v1.749a.289.289 0 0 1-.307.362z"/></g></svg>