<svg xmlns="http://www.w3.org/2000/svg" viewBox="7325.5 3754 24.818 20.408"><defs><style>.a{fill:#077096}</style></defs><g transform="translate(7261.5 3413)"><circle class="a" cx="1.512" cy="1.512" r="1.512" transform="translate(80.461 345.325)"/><path class="a" d="M87.18 341H65.638A1.64 1.64 0 0 0 64 342.638v17.133a1.64 1.64 0 0 0 1.638 1.638H87.18a1.64 1.64 0 0 0 1.638-1.638v-17.133A1.64 1.64 0 0 0 87.18 341zm-21.542 1.344H87.18a.287.287 0 0 1 .294.294v13.773l-4.031-4.031a1.616 1.616 0 0 0-2.184-.084l-2.226 1.804a.313.313 0 0 1-.378 0l-5.755-5.583a1.636 1.636 0 0 0-2.268-.042l-5.246 4.955v-10.792a.281.281 0 0 1 .252-.294zm21.542 17.721H65.638a.287.287 0 0 1-.294-.294v-4.451l6.215-5.837a.313.313 0 0 1 .378 0l5.711 5.585a1.616 1.616 0 0 0 2.184.084l2.225-1.852a.313.313 0 0 1 .378 0l4.871 4.871.126.168v1.428a.236.236 0 0 1-.252.298z"/></g></svg>