<svg xmlns="http://www.w3.org/2000/svg" viewBox="-17181 19340 30 26.299"><defs><style>.cls-1{fill:#00aeef}</style></defs><path id="Path_13061" data-name="Path 13061" class="cls-1" d="M15 0C6.72 0 0 5.884 0 13.157a12.13 12.13 0 0 0 3.332 8.266 6.1 6.1 0 0 1-2.368 3.062.409.409 0 0 0 .156.751 8.82 8.82 0 0 0 5.728-1.049A16.524 16.524 0 0 0 15 26.3c8.294 0 15-5.884 15-13.157S23.294 0 15 0zm-.213 5.983a1.673 1.673 0 1 1-1.673 1.673 1.676 1.676 0 0 1 1.673-1.673zm2.509 13.6h-4.579v-2.24h.836v-4.526h-.822v-2.24h3.743v6.763h.836l-.014 2.24zm0 0" transform="translate(-17181 19340)"/></svg>