<svg xmlns="http://www.w3.org/2000/svg" viewBox="-15844 19656 28.842 28.84"><defs><style>.cls-1{fill:#00aeef}</style></defs><path id="Path_12930" data-name="Path 12930" class="cls-1" d="M27.935 21.516L25.023 18.6a3.031 3.031 0 0 0-4.289 0l-.976.976c-.994.994-4.063-.558-7.009-3.5a17.353 17.353 0 0 1-3.261-4.324c-.366-.732-.872-2.075-.244-2.685l.976-.976a3.031 3.031 0 0 0 0-4.289L7.309.889a3.031 3.031 0 0 0-4.289 0L1.1 2.825c-1.116 1.1-1.953 3.365.314 7.829a39.814 39.814 0 0 0 7.253 9.5c4.777 4.777 10.479 8.683 14.385 8.683A4.037 4.037 0 0 0 26 27.723l1.935-1.935a3.01 3.01 0 0 0 0-4.272zm-.959 3.3l-1.935 1.935c-1.5 1.5-4.551.279-6.242-.575a39 39 0 0 1-9.154-6.992C3.106 12.641-.154 6.033 2.078 3.8l1.935-1.934a1.642 1.642 0 0 1 2.336 0l2.912 2.911a1.642 1.642 0 0 1 0 2.336l-.976.976c-2.023 2.023.628 6.085 3.5 8.962 2.162 2.162 5.022 4.2 7.149 4.2a2.379 2.379 0 0 0 1.8-.715l.976-.976a1.642 1.642 0 0 1 2.336 0l2.912 2.912a1.668 1.668 0 0 1 .018 2.339z" transform="translate(-15843.982 19656)"/></svg>