<svg xmlns="http://www.w3.org/2000/svg" viewBox="7437.749 3581.77 25.002 25"><defs><style>.a{fill:#077096}</style></defs><path class="a" d="M7456.398 3581.776a.97.97 0 0 0-.563.281l-16.254 16.254a.892.892 0 0 0-.25.438l-1.563 6.877a.988.988 0 0 0 .25.875.988.988 0 0 0 .875.25l6.877-1.562a.86.86 0 0 0 .469-.25l16.254-16.25a.965.965 0 0 0 0-1.313l-5.314-5.314a.944.944 0 0 0-.781-.286zm.094 2.251l4 4-1.813 1.813-4-4zm-3.126 3.126l4 4-11.5 11.472-3.97-4zm-12.472 13.159l3.316 3.313-4.282.969z"/></svg>