<svg xmlns="http://www.w3.org/2000/svg" viewBox="7576.828 3580.913 17.073 25"><defs><style>.a{fill:#00aeef}</style></defs><path class="a" d="M7593.891 3595.827a7.138 7.138 0 0 0-1.455.033 7.259 7.259 0 0 1-6.878 5.39 7.024 7.024 0 0 1-4.2-1.224 7.211 7.211 0 0 1-3.009-4.2 11.672 11.672 0 0 0-1.521.001 8 8 0 0 0 1.819 3.8 8.971 8.971 0 0 0 5.881 3.144 3.169 3.169 0 0 1-.033 1.587h-.6a.783.783 0 0 0-.794.5.726.726 0 0 0 .231.893c.066.033.132.066.132.165h3.836c.033-.033.033-.1.066-.132a.743.743 0 0 0 .265-.926.826.826 0 0 0-.827-.5 1.06 1.06 0 0 1-.628-.066 7.853 7.853 0 0 1 .033-1.521 8.953 8.953 0 0 0 4.993-2.216c1.532-1.256 2.826-3.604 2.689-4.728z"/><path class="a" d="M7579.936 3590.305v3.509c0 .4 0 .761.033 1.157a5.466 5.466 0 0 0 10.879-.728v-7.873a6.087 6.087 0 0 0-.165-1.356 5.458 5.458 0 0 0-10.747 1.356v3.935zm1.554.033v-3.968a3.9 3.9 0 0 1 7.8-.132c.033 2.745.033 5.456 0 8.2a3.905 3.905 0 0 1-7.8-.1v-4z"/></svg>