<svg xmlns="http://www.w3.org/2000/svg" viewBox="7328.5 3689 18.182 26.625"><defs><style>.a{fill:#077096}</style></defs><path class="a" d="M7346.672 3704.883a7.6 7.6 0 0 0-1.55.035 7.73 7.73 0 0 1-7.322 5.741 7.48 7.48 0 0 1-4.473-1.3 7.679 7.679 0 0 1-3.2-4.473 12.43 12.43 0 0 0-1.62 0 8.521 8.521 0 0 0 1.93 4.046 9.554 9.554 0 0 0 6.269 3.346 3.375 3.375 0 0 1-.035 1.69h-.634a.834.834 0 0 0-.845.528.773.773 0 0 0 .247.951c.07.035.141.07.141.176h4.085c.035-.035.035-.106.07-.141a.791.791 0 0 0 .282-.986.88.88 0 0 0-.88-.528 1.129 1.129 0 0 1-.669-.07 8.364 8.364 0 0 1 .032-1.619 9.535 9.535 0 0 0 5.318-2.36c1.622-1.338 2.995-3.838 2.854-5.036z"/><path class="a" d="M7331.81 3699.001v3.733c0 .423 0 .81.035 1.233a5.821 5.821 0 0 0 11.587-.775v-8.381a6.482 6.482 0 0 0-.176-1.444 5.813 5.813 0 0 0-11.446 1.444v4.19zm1.655.035v-4.225a4.158 4.158 0 0 1 8.311-.141c.035 2.923.035 5.811 0 8.734a4.159 4.159 0 0 1-8.311-.106v-4.261z"/></svg>